#N canvas 671 280 550 304 10;
#N canvas 344 81 416 265 generate-controls 0;
#N canvas 76 39 865 638 generate-inter-fx-matrix 0;
#X obj 277 348 /;
#X obj 58 348 %;
#X obj 277 370 i;
#X obj 58 284 f;
#X obj 88 286 + 1;
#X msg 73 254 0;
#X obj 58 306 t f f;
#X obj 58 494 spigot;
#X obj 188 285 !=;
#X text 110 496 suppress toggle creation if it's an effect paired with
itself;
#X obj 512 476 select 0;
#X obj 512 498 f;
#X obj 107 15 inlet;
#X obj 332 45 inlet;
#X obj 512 520 pack f s \$0;
#X msg 512 548 \; pd-\$3-gui-matrix-controls text 10 \$1 \$2 \;;
#X obj 307 414 + 50;
#X obj 277 414 +;
#X obj 88 394 r \$0-matrix-margin-x;
#X obj 107 59 value \$0-fx-list-length;
#X msg 659 368 0;
#X obj 659 339 t b f b;
#X msg 733 368 1;
#X obj 659 398 text get \$0-fx-list-text;
#X msg 473 368 0;
#X obj 473 339 t b f b;
#X msg 547 368 1;
#X obj 473 398 text get \$0-fx-list-text;
#X obj 374 134 outlet;
#X obj 107 89 t b f f b;
#X obj 10 150 outlet;
#X obj 88 372 r \$0-matrix-spacing-x;
#X obj 307 392 r \$0-matrix-spacing-y;
#X obj 58 394 +;
#X obj 58 372 *;
#X obj 277 392 *;
#X obj 58 224 t b f b;
#X obj 58 472 pack f f s s f \$0;
#X msg 58 526 \; pd-\$6-gui-matrix-controls obj \$1 \$2 tgl 15 0 \$3-\$4-switch
\$3-\$4-switch-set empty 17 7 0 10 \$5 -1 -1 0 1 \;;
#N canvas 0 22 222 440 get-perms 0;
#X obj 53 17 inlet;
#X obj 40 126 until;
#X obj 60 168 f;
#X obj 90 170 + 1;
#X msg 93 133 0;
#X obj 33 242 until;
#X obj 33 283 f;
#X obj 33 376 outlet;
#X obj 63 285 + 1;
#X obj 33 219 f;
#X obj 60 190 t b f b;
#X msg 106 233 0;
#X obj 53 54 t b b f;
#X obj 38 91 f;
#X obj 113 376 outlet;
#X obj 33 305 t b f;
#X obj 33 327 f;
#X obj 143 17 inlet;
#X connect 0 0 12 0;
#X connect 1 0 2 0;
#X connect 2 0 3 0;
#X connect 2 0 10 0;
#X connect 3 0 2 1;
#X connect 4 0 2 1;
#X connect 5 0 6 0;
#X connect 6 0 8 0;
#X connect 6 0 15 0;
#X connect 8 0 6 1;
#X connect 9 0 5 0;
#X connect 10 0 9 0;
#X connect 10 1 16 1;
#X connect 10 2 11 0;
#X connect 11 0 6 1;
#X connect 12 0 13 0;
#X connect 12 1 4 0;
#X connect 12 2 9 1;
#X connect 13 0 1 0;
#X connect 15 0 16 0;
#X connect 15 1 14 0;
#X connect 16 0 7 0;
#X connect 17 0 13 1;
#X restore 58 189 pd get-perms;
#N canvas 0 22 278 452 set-toggle-color 0;
#X msg 71 326 -228856;
#X msg 131 326 -262144;
#X obj 71 136 f;
#X obj 147 124 + 1;
#X obj 71 271 select 0 1;
#X msg 137 61 0;
#X obj 147 146 %;
#X obj 71 226 f;
#X obj 111 218 + 1;
#X obj 111 240 % 2;
#X obj 71 176 select 0;
#X obj 71 378 outlet;
#X obj 37 29 inlet;
#X obj 87 29 inlet;
#X obj 137 29 inlet;
#X connect 0 0 11 0;
#X connect 1 0 11 0;
#X connect 2 0 3 0;
#X connect 2 0 10 0;
#X connect 3 0 6 0;
#X connect 4 0 0 0;
#X connect 4 1 1 0;
#X connect 5 0 2 1;
#X connect 5 0 7 1;
#X connect 6 0 2 1;
#X connect 7 0 8 0;
#X connect 7 0 4 0;
#X connect 8 0 9 0;
#X connect 9 0 7 1;
#X connect 10 0 7 0;
#X connect 12 0 2 0;
#X connect 13 0 6 1;
#X connect 14 0 5 0;
#X restore 332 346 pd set-toggle-color;
#X connect 0 0 2 0;
#X connect 1 0 10 0;
#X connect 1 0 34 0;
#X connect 2 0 35 0;
#X connect 3 0 4 0;
#X connect 3 0 6 0;
#X connect 4 0 3 1;
#X connect 5 0 3 1;
#X connect 6 0 1 0;
#X connect 6 1 0 0;
#X connect 7 0 38 0;
#X connect 8 0 7 1;
#X connect 10 0 11 0;
#X connect 11 0 14 0;
#X connect 12 0 19 0;
#X connect 13 0 16 0;
#X connect 13 0 28 0;
#X connect 14 0 15 0;
#X connect 16 0 17 1;
#X connect 17 0 11 1;
#X connect 17 0 37 1;
#X connect 18 0 33 1;
#X connect 19 0 29 0;
#X connect 20 0 23 0;
#X connect 21 0 20 0;
#X connect 21 1 23 1;
#X connect 21 2 22 0;
#X connect 22 0 23 2;
#X connect 23 0 37 3;
#X connect 24 0 27 0;
#X connect 25 0 24 0;
#X connect 25 1 27 1;
#X connect 25 2 26 0;
#X connect 26 0 27 2;
#X connect 27 0 14 1;
#X connect 27 0 37 2;
#X connect 29 0 30 0;
#X connect 29 1 39 0;
#X connect 29 2 0 1;
#X connect 29 2 1 1;
#X connect 29 2 39 1;
#X connect 29 2 40 1;
#X connect 29 3 5 0;
#X connect 29 3 40 2;
#X connect 31 0 34 1;
#X connect 32 0 35 1;
#X connect 33 0 37 0;
#X connect 34 0 33 0;
#X connect 35 0 17 0;
#X connect 36 0 3 0;
#X connect 36 1 8 0;
#X connect 36 1 25 0;
#X connect 36 2 40 0;
#X connect 37 0 7 0;
#X connect 39 0 36 0;
#X connect 39 1 8 1;
#X connect 39 1 21 0;
#X connect 40 0 37 4;
#X restore 120 123 pd generate-inter-fx-matrix;
#N canvas 0 54 755 700 generate-input-fx-matrix 0;
#X obj 267 320 /;
#X obj 101 339 %;
#X obj 267 342 i;
#X obj 182 261 f;
#X obj 212 263 + 1;
#X msg 197 231 0;
#X obj 182 283 t f f;
#X obj 116 548 select 0;
#X obj 116 570 f;
#X obj 67 185 outlet;
#X obj 436 508 f;
#X obj 436 530 outlet;
#X obj 330 52 f \$0;
#X obj 116 592 pack f s \$0;
#X msg 116 620 \; pd-\$3-gui-matrix-controls text 10 \$1 \$2 \;;
#X msg 330 79 \; pd-\$1-gui-matrix-controls clear \;;
#X obj 131 385 r \$0-matrix-margin-x;
#X obj 297 386 r \$0-matrix-margin-y;
#X obj 137 21 inlet;
#X msg 514 284 0;
#X obj 514 255 t b f b;
#X msg 588 284 1;
#X obj 514 314 text get \$0-fx-list-text;
#X msg 319 284 0;
#X obj 319 255 t b f b;
#X msg 393 284 1;
#X obj 319 314 text get \$0-source-list-text;
#X obj 137 73 t b b f f f b;
#X obj 137 46 value \$0-fx-list-length;
#X obj 251 116 value \$0-source-list-length;
#X obj 330 15 r \$0-drfx-lb4;
#X obj 131 363 r \$0-matrix-spacing-x;
#X obj 297 364 r \$0-matrix-spacing-y;
#X obj 267 386 +;
#X obj 101 385 +;
#X obj 101 363 *;
#X obj 267 364 *;
#X obj 233 530 pack f f s s f \$0;
#X obj 182 205 t b f b, f 18;
#X msg 233 560 \; pd-\$6-gui-matrix-controls obj \$1 \$2 tgl 15 0 \$3-\$4-switch
\$3-\$4-switch-set empty 17 7 0 10 \$5 -1 -1 0 1 \;;
#N canvas 0 22 222 440 get-perms 0;
#X obj 53 17 inlet;
#X obj 40 126 until;
#X obj 60 168 f;
#X obj 90 170 + 1;
#X msg 93 133 0;
#X obj 33 242 until;
#X obj 33 283 f;
#X obj 33 376 outlet;
#X obj 63 285 + 1;
#X obj 33 219 f;
#X obj 60 190 t b f b;
#X msg 106 233 0;
#X obj 53 54 t b b f;
#X obj 38 91 f;
#X obj 113 376 outlet;
#X obj 33 305 t b f;
#X obj 33 327 f;
#X obj 143 17 inlet;
#X connect 0 0 12 0;
#X connect 1 0 2 0;
#X connect 2 0 3 0;
#X connect 2 0 10 0;
#X connect 3 0 2 1;
#X connect 4 0 2 1;
#X connect 5 0 6 0;
#X connect 6 0 8 0;
#X connect 6 0 15 0;
#X connect 8 0 6 1;
#X connect 9 0 5 0;
#X connect 10 0 9 0;
#X connect 10 1 16 1;
#X connect 10 2 11 0;
#X connect 11 0 6 1;
#X connect 12 0 13 0;
#X connect 12 1 4 0;
#X connect 12 2 9 1;
#X connect 13 0 1 0;
#X connect 15 0 16 0;
#X connect 15 1 14 0;
#X connect 16 0 7 0;
#X connect 17 0 13 1;
#X restore 182 147 pd get-perms;
#N canvas 0 22 278 452 set-toggle-color 0;
#X msg 71 326 -228856;
#X msg 131 326 -262144;
#X obj 71 136 f;
#X obj 147 124 + 1;
#X obj 71 271 select 0 1;
#X msg 137 61 0;
#X obj 147 146 %;
#X obj 71 226 f;
#X obj 111 218 + 1;
#X obj 111 240 % 2;
#X obj 71 176 select 0;
#X obj 71 378 outlet;
#X obj 37 29 inlet;
#X obj 87 29 inlet;
#X obj 137 29 inlet;
#X connect 0 0 11 0;
#X connect 1 0 11 0;
#X connect 2 0 3 0;
#X connect 2 0 10 0;
#X connect 3 0 6 0;
#X connect 4 0 0 0;
#X connect 4 1 1 0;
#X connect 5 0 2 1;
#X connect 5 0 7 1;
#X connect 6 0 2 1;
#X connect 7 0 8 0;
#X connect 7 0 4 0;
#X connect 8 0 9 0;
#X connect 9 0 7 1;
#X connect 10 0 7 0;
#X connect 12 0 2 0;
#X connect 13 0 6 1;
#X connect 14 0 5 0;
#X restore 510 443 pd set-toggle-color;
#X connect 0 0 2 0;
#X connect 1 0 7 0;
#X connect 1 0 35 0;
#X connect 2 0 36 0;
#X connect 3 0 4 0;
#X connect 3 0 6 0;
#X connect 4 0 3 1;
#X connect 5 0 3 1;
#X connect 6 0 1 0;
#X connect 6 1 0 0;
#X connect 7 0 8 0;
#X connect 8 0 13 0;
#X connect 10 0 11 0;
#X connect 12 0 15 0;
#X connect 13 0 14 0;
#X connect 16 0 34 1;
#X connect 17 0 33 1;
#X connect 18 0 28 0;
#X connect 19 0 22 0;
#X connect 20 0 19 0;
#X connect 20 1 22 1;
#X connect 20 2 21 0;
#X connect 21 0 22 2;
#X connect 22 0 37 3;
#X connect 23 0 26 0;
#X connect 24 0 23 0;
#X connect 24 1 26 1;
#X connect 24 2 25 0;
#X connect 25 0 26 2;
#X connect 26 0 13 1;
#X connect 26 0 37 2;
#X connect 27 0 9 0;
#X connect 27 1 10 0;
#X connect 27 3 40 0;
#X connect 27 4 0 1;
#X connect 27 4 1 1;
#X connect 27 4 41 1;
#X connect 27 5 12 0;
#X connect 27 5 5 0;
#X connect 27 5 29 0;
#X connect 27 5 41 2;
#X connect 28 0 27 0;
#X connect 29 0 40 1;
#X connect 30 0 12 0;
#X connect 31 0 35 1;
#X connect 32 0 36 1;
#X connect 33 0 8 1;
#X connect 33 0 10 1;
#X connect 33 0 37 1;
#X connect 34 0 37 0;
#X connect 35 0 34 0;
#X connect 36 0 33 0;
#X connect 37 0 39 0;
#X connect 38 0 3 0;
#X connect 38 1 24 0;
#X connect 38 2 41 0;
#X connect 40 0 38 0;
#X connect 40 1 20 0;
#X connect 41 0 37 4;
#X restore 120 93 pd generate-input-fx-matrix;
#N canvas 794 110 433 592 vertical-labels 0;
#X obj 47 82 t f b;
#X obj 47 104 until;
#X obj 47 156 f;
#X obj 77 158 + 1;
#X msg 61 129 0;
#X obj 150 342 r \$0-matrix-margin-x;
#X obj 47 16 inlet;
#X obj 47 38 value \$0-fx-list-length;
#X msg 47 217 0;
#X obj 47 188 t b f b;
#X msg 121 217 1;
#X obj 47 247 text get \$0-fx-list-text;
#X obj 236 78 inlet;
#X obj 47 371 pack s f f \$0;
#X msg 47 393 \; pd-\$4-gui-matrix-controls text \$2 \$3 \$1 \, f 1
\;;
#X text 134 310 << bypass the toggle to the left of the label;
#X obj 95 312 + 20;
#X obj 150 282 r \$0-matrix-spacing-x;
#X obj 95 342 +;
#X obj 95 280 *;
#X connect 0 0 1 0;
#X connect 0 1 4 0;
#X connect 1 0 2 0;
#X connect 2 0 3 0;
#X connect 2 0 9 0;
#X connect 3 0 2 1;
#X connect 4 0 2 1;
#X connect 5 0 18 1;
#X connect 6 0 7 0;
#X connect 7 0 0 0;
#X connect 8 0 11 0;
#X connect 9 0 8 0;
#X connect 9 1 11 1;
#X connect 9 1 19 0;
#X connect 9 2 10 0;
#X connect 10 0 11 2;
#X connect 11 0 13 0;
#X connect 12 0 13 2;
#X connect 13 0 14 0;
#X connect 16 0 18 0;
#X connect 17 0 19 1;
#X connect 18 0 13 1;
#X connect 19 0 16 0;
#X restore 120 153 pd vertical-labels;
#X obj 62 18 inlet;
#X obj 62 212 outlet;
#X obj 62 40 t b b;
#X connect 0 0 2 0;
#X connect 0 1 2 1;
#X connect 1 0 0 0;
#X connect 1 1 0 1;
#X connect 3 0 5 0;
#X connect 5 0 4 0;
#X connect 5 1 1 0;
#X restore 43 154 pd generate-controls;
#N canvas 148 303 408 330 routing 0;
#N canvas 214 368 585 308 inter-fx-routing 0;
#N canvas 437 137 673 563 gen-subpatches 0;
#X obj 183 315 i;
#X obj 164 235 f;
#X obj 194 237 + 1;
#X msg 179 205 0;
#X obj 97 17 inlet;
#X obj 135 152 t f b;
#X obj 135 174 until;
#X obj 107 348 + 50;
#X obj 183 337 * 100;
#X obj 154 412 pack f f s \$0;
#X obj 107 302 % 4;
#X obj 183 359 + 50;
#X obj 183 293 / 4;
#X obj 107 326 * 200;
#X obj 38 109 outlet;
#X obj 372 113 f \$0;
#X msg 247 330 0;
#X obj 247 301 t b f b;
#X msg 321 330 1;
#X obj 97 39 t b b b;
#X obj 164 257 t f f f;
#X obj 135 130 value \$0-fx-list-length;
#X obj 372 56 r \$0-destroy-matrix;
#X obj 392 84 r \$0-drfx-lb4;
#X obj 247 360 text get \$0-fx-list-text;
#X msg 372 142 \; pd-\$1-inter-fx-routing-subpatches clear \;;
#X msg 154 449 \; pd-\$4-inter-fx-routing-subpatches obj \$1 \$2 pd
\$4-\$3-switches \; pd-\$4-\$3-switches vis 0 \;;
#X connect 0 0 8 0;
#X connect 1 0 2 0;
#X connect 1 0 20 0;
#X connect 2 0 1 1;
#X connect 3 0 1 1;
#X connect 4 0 19 0;
#X connect 5 0 6 0;
#X connect 5 1 3 0;
#X connect 6 0 1 0;
#X connect 7 0 9 0;
#X connect 8 0 11 0;
#X connect 9 0 26 0;
#X connect 10 0 13 0;
#X connect 11 0 9 1;
#X connect 12 0 0 0;
#X connect 13 0 7 0;
#X connect 15 0 25 0;
#X connect 16 0 24 0;
#X connect 17 0 16 0;
#X connect 17 1 24 1;
#X connect 17 2 18 0;
#X connect 18 0 24 2;
#X connect 19 0 14 0;
#X connect 19 1 21 0;
#X connect 19 2 15 0;
#X connect 20 0 10 0;
#X connect 20 1 12 0;
#X connect 20 2 17 0;
#X connect 21 0 5 0;
#X connect 22 0 15 0;
#X connect 23 0 15 0;
#X connect 24 0 9 2;
#X restore 19 40 pd gen-subpatches;
#X obj 19 15 inlet;
#N canvas 156 23 1068 783 gen-subpatch-content 0;
#X obj 165 466 i;
#X obj 184 156 f;
#X obj 214 158 + 1;
#X msg 199 126 0;
#X obj 353 19 inlet;
#X obj 154 119 until;
#X obj 35 518 + 50;
#X obj 35 472 % 4;
#X obj 165 510 + 50;
#X obj 165 444 / 4;
#X obj 186 349 f;
#X obj 236 343 + 1;
#X obj 148 326 until;
#X obj 318 495 f;
#X obj 333 563 + 1;
#X obj 363 563 + 2;
#X obj 393 563 + 3;
#X obj 423 563 + 4;
#X obj 453 563 + 5;
#X obj 165 488 * 300;
#X obj 35 540 t f f;
#X obj 91 574 + 25;
#X obj 165 532 t f f f f f f;
#X obj 111 604 + 25;
#X obj 151 604 + 50;
#X obj 191 604 + 75;
#X obj 231 604 + 100;
#X obj 271 604 + 150;
#X obj 148 280 f;
#X obj 353 80 t f b f;
#X obj 148 302 - 1;
#X obj 201 291 + 1;
#X obj 236 365 %;
#X obj 35 496 * 300;
#X obj 35 410 f;
#X obj 65 412 + 1;
#X msg 50 380 0;
#X obj 35 432 t f f;
#X obj 184 192 t b b f b f;
#N canvas 295 57 883 499 message 0;
#X obj 67 58 inlet;
#X text 482 161 \$1: origin X \; \$2: origin Y \; \$3: X+25 \; \$4:
Y+25 \; \$5: Y+50 \; \$6: Y+75 \; \$7: Y+100 \; \$8: Y+150 \; \$9:
object counter [r~] \; \$10: object counter+1 [*~] \; \$11: object
counter+2 [throw~] \; \$12: object counter+3 [r switch] \; \$13: object
counter+4 [r switch-ramp-time] \; \$14: object counter+5 [pack] \;
\$15: object counter+6 [line~] \; \$16: object counter+7 (first quartic
mult) \; \$17: object counter+8 (second quartic mult) \; \$18: FX name
A \; \$19: FX name B \; \$20: dollar-0 \;;
#X msg 67 141 \; pd-\$20-\$18-switches obj \$1 \$2 r~ \$18-out \; pd-\$20-\$18-switches
obj \$1 \$7 *~ \; pd-\$20-\$18-switches obj \$1 \$8 throw~ \$19-in
\; \; pd-\$20-\$18-switches connect \$9 0 \$10 0 \; pd-\$20-\$18-switches
connect \$10 0 \$11 0 \; \; pd-\$20-\$18-switches obj \$3 \$4 r \$18-\$19-switch
\; pd-\$20-\$18-switches obj \$3 \$4 r \$18-\$19-switch-ramp-time \;
pd-\$20-\$18-switches obj \$3 \$5 pack f 40 \; pd-\$20-\$18-switches
obj \$3 \$6 line~ \; pd-\$20-\$18-switches obj \$3 \$7 *~ \; pd-\$20-\$18-switches
obj \$3 \$7 *~ \; \; pd-\$20-\$18-switches connect \$12 0 \$14 0 \;
pd-\$20-\$18-switches connect \$13 0 \$14 1 \; pd-\$20-\$18-switches
connect \$14 0 \$15 0 \; pd-\$20-\$18-switches connect \$15 0 \$16
0 \; pd-\$20-\$18-switches connect \$15 0 \$16 1 \; pd-\$20-\$18-switches
connect \$16 0 \$17 0 \; pd-\$20-\$18-switches connect \$16 0 \$17
1 \; pd-\$20-\$18-switches connect \$17 0 \$10 1 \;;
#X connect 0 0 2 0;
#X restore 332 729 pd message;
#X obj 201 313 %;
#X msg 790 556 0;
#X obj 790 527 t b f b;
#X msg 864 556 1;
#X msg 630 556 0;
#X obj 630 527 t b f b;
#X msg 704 556 1;
#X obj 186 396 t b f b f;
#X obj 312 23 bng 15 250 50 0 empty empty empty 17 7 0 10 -262144 -1
-1;
#X obj 483 563 + 6;
#X obj 353 58 value \$0-fx-list-length;
#X obj 630 586 text get \$0-fx-list-text;
#X obj 790 586 text get \$0-fx-list-text;
#X msg 333 465 0;
#X text 542 138 \$1: origin X \; \$2: origin Y \; \$3: X+25 \; \$4:
Y+25 \; \$5: Y+50 \; \$6: Y+75 \; \$7: Y+100 \; \$8: Y+150 \; \$9:
object counter [r~] \; \$10: object counter+1 [*~] \; \$11: object
counter+2 [throw~] \; \$12: object counter+3 [r switch] \; \$13: object
counter+4 [r switch-ramp-time] \; \$14: object counter+5 [pack] \;
\$15: object counter+6 [line~] \; \$16: object counter+7 (first quartic
mult) \; \$17: object counter+8 (second quartic mult) \; \$18: FX name
A \; \$19: FX name B \; \$20: dollar-0 \;;
#X obj 349 497 + 9;
#X obj 332 699 pack f f f f f f f f f f f f f f f f f s s \$0;
#X obj 318 517 t f f f f f f f f f;
#X obj 513 563 + 7;
#X obj 543 563 + 8;
#X connect 0 0 19 0;
#X connect 1 0 2 0;
#X connect 1 0 38 0;
#X connect 2 0 1 1;
#X connect 3 0 1 1;
#X connect 4 0 50 0;
#X connect 5 0 1 0;
#X connect 6 0 20 0;
#X connect 7 0 33 0;
#X connect 8 0 22 0;
#X connect 9 0 0 0;
#X connect 10 0 11 0;
#X connect 10 0 47 0;
#X connect 11 0 32 0;
#X connect 12 0 10 0;
#X connect 13 0 55 0;
#X connect 13 0 57 0;
#X connect 14 0 56 9;
#X connect 15 0 56 10;
#X connect 16 0 56 11;
#X connect 17 0 56 12;
#X connect 18 0 56 13;
#X connect 19 0 8 0;
#X connect 20 0 56 0;
#X connect 20 1 21 0;
#X connect 21 0 56 2;
#X connect 22 0 56 1;
#X connect 22 1 23 0;
#X connect 22 2 24 0;
#X connect 22 3 25 0;
#X connect 22 4 26 0;
#X connect 22 5 27 0;
#X connect 23 0 56 3;
#X connect 24 0 56 4;
#X connect 25 0 56 5;
#X connect 26 0 56 6;
#X connect 27 0 56 7;
#X connect 28 0 30 0;
#X connect 29 0 5 0;
#X connect 29 1 3 0;
#X connect 29 2 28 1;
#X connect 29 2 32 1;
#X connect 29 2 40 1;
#X connect 30 0 12 0;
#X connect 31 0 40 0;
#X connect 32 0 10 1;
#X connect 33 0 6 0;
#X connect 34 0 35 0;
#X connect 34 0 37 0;
#X connect 35 0 34 1;
#X connect 36 0 34 1;
#X connect 37 0 7 0;
#X connect 37 1 9 0;
#X connect 38 0 28 0;
#X connect 38 1 53 0;
#X connect 38 1 36 0;
#X connect 38 2 31 0;
#X connect 38 4 45 0;
#X connect 40 0 10 1;
#X connect 41 0 52 0;
#X connect 42 0 41 0;
#X connect 42 1 52 1;
#X connect 42 2 43 0;
#X connect 43 0 52 2;
#X connect 44 0 51 0;
#X connect 45 0 44 0;
#X connect 45 1 51 1;
#X connect 45 2 46 0;
#X connect 46 0 51 2;
#X connect 47 0 34 0;
#X connect 47 2 13 0;
#X connect 47 3 42 0;
#X connect 48 0 50 0;
#X connect 49 0 56 14;
#X connect 50 0 29 0;
#X connect 51 0 56 17;
#X connect 52 0 56 18;
#X connect 53 0 13 1;
#X connect 55 0 13 1;
#X connect 56 0 39 0;
#X connect 57 0 56 8;
#X connect 57 1 14 0;
#X connect 57 2 15 0;
#X connect 57 3 16 0;
#X connect 57 4 17 0;
#X connect 57 5 18 0;
#X connect 57 6 49 0;
#X connect 57 7 58 0;
#X connect 57 8 59 0;
#X connect 58 0 56 15;
#X connect 59 0 56 16;
#X restore 19 70 pd gen-subpatch-content;
#N canvas 816 95 1067 396 \$0-inter-fx-routing-subpatches 0;
#X restore 247 41 pd \$0-inter-fx-routing-subpatches;
#X connect 0 0 2 0;
#X connect 1 0 0 0;
#X restore 146 214 pd inter-fx-routing;
#N canvas 412 281 450 300 source-fx-routing 0;
#N canvas 442 29 666 547 gen-subpatches 0;
#X obj 145 295 i;
#X obj 126 215 f;
#X obj 156 217 + 1;
#X msg 141 185 0;
#X obj 97 17 inlet;
#X obj 97 132 t f b;
#X obj 97 154 until;
#X obj 69 328 + 50;
#X obj 145 317 * 100;
#X obj 116 392 pack f f s \$0;
#X obj 126 237 t f f b f;
#X obj 69 282 % 4;
#X obj 145 339 + 50;
#X obj 145 273 / 4;
#X obj 69 306 * 200;
#X obj 372 113 f \$0;
#X msg 220 316 0;
#X obj 220 287 t b f b;
#X msg 294 316 1;
#X obj 97 39 t b b;
#X obj 382 84 r \$0-drfx-lb4;
#X obj 372 56 r \$0-destroy-matrix;
#X msg 373 152 \; pd-\$1-source-fx-routing-subpatches clear \;;
#X msg 116 429 \; pd-\$4-source-fx-routing-subpatches obj \$1 \$2 pd
\$4-\$3-switches \; pd-\$4-\$3-switches vis 0 \;;
#X obj 220 346 text get \$0-source-list-text;
#X obj 97 110 value \$0-source-list-length;
#X connect 0 0 8 0;
#X connect 1 0 2 0;
#X connect 1 0 10 0;
#X connect 2 0 1 1;
#X connect 3 0 1 1;
#X connect 4 0 19 0;
#X connect 5 0 6 0;
#X connect 5 1 3 0;
#X connect 6 0 1 0;
#X connect 7 0 9 0;
#X connect 8 0 12 0;
#X connect 9 0 23 0;
#X connect 10 0 11 0;
#X connect 10 1 13 0;
#X connect 10 3 17 0;
#X connect 11 0 14 0;
#X connect 12 0 9 1;
#X connect 13 0 0 0;
#X connect 14 0 7 0;
#X connect 15 0 22 0;
#X connect 16 0 24 0;
#X connect 17 0 16 0;
#X connect 17 1 24 1;
#X connect 17 2 18 0;
#X connect 18 0 24 2;
#X connect 19 0 25 0;
#X connect 19 1 15 0;
#X connect 20 0 15 0;
#X connect 21 0 15 0;
#X connect 24 0 9 2;
#X connect 25 0 5 0;
#X restore 210 45 pd gen-subpatches;
#X obj 19 15 inlet;
#N canvas 116 23 933 702 gen-subpatch-content 0;
#X obj 144 426 i;
#X obj 85 161 f;
#X obj 115 163 + 1;
#X msg 100 131 0;
#X obj 99 15 inlet;
#X obj 55 108 until;
#X obj 14 468 + 50;
#X obj 14 422 % 4;
#X obj 144 470 + 50;
#X obj 144 404 / 4;
#X obj 85 263 until;
#X obj 307 455 f;
#X obj 322 523 + 1;
#X obj 352 523 + 2;
#X obj 382 523 + 3;
#X obj 412 523 + 4;
#X obj 442 523 + 5;
#X obj 144 448 * 300;
#X obj 14 490 t f f;
#X obj 70 534 + 25;
#X obj 144 492 t f f f f f f;
#X obj 90 564 + 25;
#X obj 130 564 + 50;
#X obj 170 564 + 75;
#X obj 210 564 + 100;
#X obj 250 564 + 150;
#X obj 14 446 * 300;
#X obj 14 370 f;
#X obj 44 372 + 1;
#X msg 39 343 0;
#X obj 14 392 t f f;
#X obj 85 196 t b b f b f;
#N canvas 405 132 859 446 one-giant-message 0;
#X obj 67 33 inlet;
#X text 469 58 connect message has 4 values \; OBJ1 ID \, OBJ1 OUTLET
\, OBJ2 ID \, OBJ2 INLET;
#X text 483 98 \$1: origin X \; \$2: origin Y \; \$3: X+25 \; \$4:
Y+25 \; \$5: Y+50 \; \$6: Y+75 \; \$7: Y+100 \; \$8: Y+150 \; \$9:
object counter [r~] \; \$10: object counter+1 [*~] \; \$11: object
counter+2 [throw~] \; \$12: object counter+3 [r switch] \; \$13: object
counter+4 [r switch-ramp-time] \; \$14: object counter+5 [pack] \;
\$15: object counter+6 [line~] \; \$16: object counter+7 (first quartic
mult) \; \$17: object counter+8 (second quartic mult) \; \$18: Input
name \; \$19: FX name \; \$20: dollar-0 \;;
#X msg 67 67 \; pd-\$20-\$18-switches obj \$1 \$2 r~ \$18 \; pd-\$20-\$18-switches
obj \$1 \$7 *~ \; pd-\$20-\$18-switches obj \$1 \$8 throw~ \$19-in
\; \; pd-\$20-\$18-switches connect \$9 0 \$10 0 \; pd-\$20-\$18-switches
connect \$10 0 \$11 0 \; \; pd-\$20-\$18-switches obj \$3 \$4 r \$18-\$19-switch
\; pd-\$20-\$18-switches obj \$3 \$4 r \$18-\$19-switch-ramp-time \;
pd-\$20-\$18-switches obj \$3 \$5 pack f 40 \; pd-\$20-\$18-switches
obj \$3 \$6 line~ \; pd-\$20-\$18-switches obj \$3 \$7 *~ \; pd-\$20-\$18-switches
obj \$3 \$7 *~ \; \; pd-\$20-\$18-switches connect \$12 0 \$14 0 \;
pd-\$20-\$18-switches connect \$13 0 \$14 1 \; pd-\$20-\$18-switches
connect \$14 0 \$15 0 \; pd-\$20-\$18-switches connect \$15 0 \$16
0 \; pd-\$20-\$18-switches connect \$15 0 \$16 1 \; pd-\$20-\$18-switches
connect \$16 0 \$17 0 \; pd-\$20-\$18-switches connect \$16 0 \$17
1 \; pd-\$20-\$18-switches connect \$17 0 \$10 1 \;;
#X connect 0 0 3 0;
#X restore 51 648 pd one-giant-message;
#X obj 120 335 f;
#X obj 150 337 + 1;
#X msg 135 305 0;
#X msg 651 391 0;
#X obj 651 362 t b f b;
#X msg 725 391 1;
#X msg 721 521 0;
#X obj 721 492 t b f b;
#X msg 795 521 1;
#X obj 99 68 t f b;
#X obj 120 367 t b b f;
#X obj 472 523 + 6;
#X msg 322 425 0;
#X obj 99 46 value \$0-source-list-length;
#X obj 85 236 value \$0-fx-list-length;
#X obj 651 421 text get \$0-source-list-text;
#X obj 721 551 text get \$0-fx-list-text;
#X obj 307 477 t f f f f f f f f f;
#X obj 51 620 pack f f f f f f f f f f f f f f f f f s s \$0, f 88
;
#X obj 502 523 + 7;
#X obj 532 523 + 8;
#X obj 337 457 + 9;
#X connect 0 0 17 0;
#X connect 1 0 2 0;
#X connect 1 0 31 0;
#X connect 2 0 1 1;
#X connect 3 0 1 1;
#X connect 4 0 46 0;
#X connect 5 0 1 0;
#X connect 6 0 18 0;
#X connect 7 0 26 0;
#X connect 8 0 20 0;
#X connect 9 0 0 0;
#X connect 10 0 33 0;
#X connect 11 0 50 0;
#X connect 11 0 54 0;
#X connect 12 0 51 9;
#X connect 13 0 51 10;
#X connect 14 0 51 11;
#X connect 15 0 51 12;
#X connect 16 0 51 13;
#X connect 17 0 8 0;
#X connect 18 0 51 0;
#X connect 18 1 19 0;
#X connect 19 0 51 2;
#X connect 20 0 51 1;
#X connect 20 1 21 0;
#X connect 20 2 22 0;
#X connect 20 3 23 0;
#X connect 20 4 24 0;
#X connect 20 5 25 0;
#X connect 21 0 51 3;
#X connect 22 0 51 4;
#X connect 23 0 51 5;
#X connect 24 0 51 6;
#X connect 25 0 51 7;
#X connect 26 0 6 0;
#X connect 27 0 28 0;
#X connect 27 0 30 0;
#X connect 28 0 27 1;
#X connect 29 0 27 1;
#X connect 30 0 7 0;
#X connect 30 1 9 0;
#X connect 31 0 47 0;
#X connect 31 1 45 0;
#X connect 31 1 29 0;
#X connect 31 2 37 0;
#X connect 31 3 35 0;
#X connect 33 0 34 0;
#X connect 33 0 43 0;
#X connect 34 0 33 1;
#X connect 35 0 33 1;
#X connect 36 0 48 0;
#X connect 37 0 36 0;
#X connect 37 1 48 1;
#X connect 37 2 38 0;
#X connect 38 0 48 2;
#X connect 39 0 49 0;
#X connect 40 0 39 0;
#X connect 40 1 49 1;
#X connect 40 2 41 0;
#X connect 41 0 49 2;
#X connect 42 0 5 0;
#X connect 42 1 3 0;
#X connect 43 0 27 0;
#X connect 43 1 11 0;
#X connect 43 2 40 0;
#X connect 44 0 51 14;
#X connect 45 0 11 1;
#X connect 46 0 42 0;
#X connect 47 0 10 0;
#X connect 48 0 51 17;
#X connect 49 0 51 18;
#X connect 50 0 51 8;
#X connect 50 1 12 0;
#X connect 50 2 13 0;
#X connect 50 3 14 0;
#X connect 50 4 15 0;
#X connect 50 5 16 0;
#X connect 50 6 44 0;
#X connect 50 7 52 0;
#X connect 50 8 53 0;
#X connect 51 0 32 0;
#X connect 52 0 51 15;
#X connect 53 0 51 16;
#X connect 54 0 11 1;
#X restore 19 45 pd gen-subpatch-content;
#X obj 210 15 inlet;
#N canvas 78 397 1067 396 \$0-source-fx-routing-subpatches 0;
#X restore 130 185 pd \$0-source-fx-routing-subpatches;
#X connect 1 0 2 0;
#X connect 3 0 0 0;
#X restore 172 151 pd source-fx-routing;
#X obj 54 20 inlet;
#X obj 54 42 t b b b b;
#X obj 54 274 outlet;
#X connect 2 0 3 0;
#X connect 3 0 4 0;
#X connect 3 1 0 0;
#X connect 3 2 1 0;
#X connect 3 3 1 1;
#X restore 43 174 pd routing;
#N canvas 543 29 760 451 other-interface 0;
#X obj 102 40 r \$0-show-gui-matrix-controls;
#X obj 118 186 r \$0-fx-clear-routing;
#X obj 102 62 pack f \$0;
#X msg 102 91 \; pd-\$2-gui-matrix-controls vis \$1 \;;
#N canvas 0 23 443 247 clear-gui-matrix-routing 0;
#X obj 59 21 inlet;
#N canvas 427 59 470 605 clear-inter-fx-matrix 0;
#X obj 111 456 spigot;
#X obj 137 298 !=;
#X obj 50 40 inlet;
#X obj 50 209 t f f;
#X obj 111 434 pack s s;
#X msg 111 500 \; \$1-\$2-switch-set 0 \;;
#X obj 50 109 t f f;
#X obj 50 72 value \$0-fx-list-length;
#X msg 229 341 0;
#X obj 229 312 t b f b;
#X msg 303 341 1;
#X obj 229 371 text get \$0-fx-list-text;
#X msg 50 341 0;
#X obj 50 312 t b f b;
#X msg 124 341 1;
#X obj 50 371 text get \$0-fx-list-text;
#N canvas 0 22 222 440 get-perms 0;
#X obj 53 17 inlet;
#X obj 40 126 until;
#X obj 60 168 f;
#X obj 90 170 + 1;
#X msg 93 133 0;
#X obj 33 242 until;
#X obj 33 283 f;
#X obj 33 376 outlet;
#X obj 63 285 + 1;
#X obj 33 219 f;
#X obj 60 190 t b f b;
#X msg 106 233 0;
#X obj 53 54 t b b f;
#X obj 38 91 f;
#X obj 113 376 outlet;
#X obj 33 305 t b f;
#X obj 33 327 f;
#X obj 143 17 inlet;
#X connect 0 0 12 0;
#X connect 1 0 2 0;
#X connect 2 0 3 0;
#X connect 2 0 10 0;
#X connect 3 0 2 1;
#X connect 4 0 2 1;
#X connect 5 0 6 0;
#X connect 6 0 8 0;
#X connect 6 0 15 0;
#X connect 8 0 6 1;
#X connect 9 0 5 0;
#X connect 10 0 9 0;
#X connect 10 1 16 1;
#X connect 10 2 11 0;
#X connect 11 0 6 1;
#X connect 12 0 13 0;
#X connect 12 1 4 0;
#X connect 12 2 9 1;
#X connect 13 0 1 0;
#X connect 15 0 16 0;
#X connect 15 1 14 0;
#X connect 16 0 7 0;
#X connect 17 0 13 1;
#X restore 50 160 pd get-perms;
#X connect 0 0 5 0;
#X connect 1 0 0 1;
#X connect 2 0 7 0;
#X connect 3 0 13 0;
#X connect 3 1 1 0;
#X connect 4 0 0 0;
#X connect 6 0 16 0;
#X connect 6 1 16 1;
#X connect 7 0 6 0;
#X connect 8 0 11 0;
#X connect 9 0 8 0;
#X connect 9 1 11 1;
#X connect 9 2 10 0;
#X connect 10 0 11 2;
#X connect 11 0 4 1;
#X connect 12 0 15 0;
#X connect 13 0 12 0;
#X connect 13 1 15 1;
#X connect 13 2 14 0;
#X connect 14 0 15 2;
#X connect 15 0 4 0;
#X connect 16 0 3 0;
#X connect 16 1 1 1;
#X connect 16 1 9 0;
#X restore 59 85 pd clear-inter-fx-matrix;
#N canvas 374 23 569 538 clear-input-fx-matrix 0;
#X obj 67 185 outlet;
#X obj 164 19 inlet;
#X obj 141 375 pack s s;
#X msg 141 410 \; \$1-\$2-switch-set 0 \;;
#X obj 264 190 value \$0-source-list-length;
#X msg 353 300 0;
#X obj 353 271 t b f b;
#X msg 427 300 1;
#X obj 353 330 text get \$0-fx-list-text;
#X msg 141 300 0;
#X obj 141 271 t b f b;
#X msg 215 300 1;
#X obj 141 330 text get \$0-source-list-text;
#X obj 164 76 value \$0-fx-list-length;
#X obj 164 106 t b f b;
#N canvas 0 22 222 440 get-perms 0;
#X obj 53 17 inlet;
#X obj 40 126 until;
#X obj 60 168 f;
#X obj 90 170 + 1;
#X msg 93 133 0;
#X obj 33 242 until;
#X obj 33 283 f;
#X obj 33 376 outlet;
#X obj 63 285 + 1;
#X obj 33 219 f;
#X obj 60 190 t b f b;
#X msg 106 233 0;
#X obj 53 54 t b b f;
#X obj 38 91 f;
#X obj 113 376 outlet;
#X obj 33 305 t b f;
#X obj 33 327 f;
#X obj 143 17 inlet;
#X connect 0 0 12 0;
#X connect 1 0 2 0;
#X connect 2 0 3 0;
#X connect 2 0 10 0;
#X connect 3 0 2 1;
#X connect 4 0 2 1;
#X connect 5 0 6 0;
#X connect 6 0 8 0;
#X connect 6 0 15 0;
#X connect 8 0 6 1;
#X connect 9 0 5 0;
#X connect 10 0 9 0;
#X connect 10 1 16 1;
#X connect 10 2 11 0;
#X connect 11 0 6 1;
#X connect 12 0 13 0;
#X connect 12 1 4 0;
#X connect 12 2 9 1;
#X connect 13 0 1 0;
#X connect 15 0 16 0;
#X connect 15 1 14 0;
#X connect 16 0 7 0;
#X connect 17 0 13 1;
#X restore 141 224 pd get-perms;
#X connect 1 0 13 0;
#X connect 2 0 3 0;
#X connect 4 0 15 1;
#X connect 5 0 8 0;
#X connect 6 0 5 0;
#X connect 6 1 8 1;
#X connect 6 2 7 0;
#X connect 7 0 8 2;
#X connect 8 0 2 1;
#X connect 9 0 12 0;
#X connect 10 0 9 0;
#X connect 10 1 12 1;
#X connect 10 2 11 0;
#X connect 11 0 12 2;
#X connect 12 0 2 0;
#X connect 13 0 14 0;
#X connect 14 0 0 0;
#X connect 14 1 15 0;
#X connect 14 2 4 0;
#X connect 15 0 10 0;
#X connect 15 1 6 0;
#X restore 59 55 pd clear-input-fx-matrix;
#X connect 0 0 2 0;
#X connect 2 0 1 0;
#X restore 118 208 pd clear-gui-matrix-routing;
#X obj 379 65 f \$0;
#X msg 379 92 \; pd-\$1-gui-matrix-controls clear \;;
#X obj 379 36 r \$0-destroy-matrix;
#X obj 388 296 r \$0-fx-out-gain-unity;
#X obj 118 296 r \$0-fx-out-gain-mute;
#X obj 118 366 r \$0-fx-tap-out-gain-mute;
#X obj 388 366 r \$0-fx-tap-out-gain-unity;
#N canvas 764 138 409 468 fx-out-gain-mute 0;
#X obj 59 21 inlet;
#X obj 59 83 t f b;
#X obj 60 112 until;
#X obj 80 154 f;
#X obj 110 156 + 1;
#X msg 113 119 0;
#X msg 80 281 \; \$1-out-gain-set 0 \;;
#X obj 59 61 value \$0-fx-list-length;
#X msg 80 214 0;
#X obj 80 185 t b f b;
#X msg 154 214 1;
#X obj 80 244 text get \$0-fx-list-text;
#X connect 0 0 7 0;
#X connect 1 0 2 0;
#X connect 1 1 5 0;
#X connect 2 0 3 0;
#X connect 3 0 4 0;
#X connect 3 0 9 0;
#X connect 4 0 3 1;
#X connect 5 0 3 1;
#X connect 7 0 1 0;
#X connect 8 0 11 0;
#X connect 9 0 8 0;
#X connect 9 1 11 1;
#X connect 9 2 10 0;
#X connect 10 0 11 2;
#X connect 11 0 6 0;
#X restore 118 318 pd fx-out-gain-mute;
#N canvas 764 138 409 468 fx-tap-out-gain-mute 0;
#X obj 59 21 inlet;
#X obj 59 83 t f b;
#X obj 60 112 until;
#X obj 80 154 f;
#X obj 110 156 + 1;
#X msg 113 119 0;
#X obj 59 61 value \$0-fx-list-length;
#X msg 80 214 0;
#X obj 80 185 t b f b;
#X msg 154 214 1;
#X obj 80 244 text get \$0-fx-list-text;
#X msg 80 281 \; \$1-tap-out-gain-set 0 \;;
#X connect 0 0 6 0;
#X connect 1 0 2 0;
#X connect 1 1 5 0;
#X connect 2 0 3 0;
#X connect 3 0 4 0;
#X connect 3 0 8 0;
#X connect 4 0 3 1;
#X connect 5 0 3 1;
#X connect 6 0 1 0;
#X connect 7 0 10 0;
#X connect 8 0 7 0;
#X connect 8 1 10 1;
#X connect 8 2 9 0;
#X connect 9 0 10 2;
#X connect 10 0 11 0;
#X restore 118 388 pd fx-tap-out-gain-mute;
#N canvas 764 138 409 468 fx-out-gain-unity 0;
#X obj 59 21 inlet;
#X obj 59 83 t f b;
#X obj 60 112 until;
#X obj 80 154 f;
#X obj 110 156 + 1;
#X msg 113 119 0;
#X obj 59 61 value \$0-fx-list-length;
#X msg 80 214 0;
#X obj 80 185 t b f b;
#X msg 154 214 1;
#X obj 80 244 text get \$0-fx-list-text;
#X msg 80 281 \; \$1-out-gain-set 100 \;;
#X connect 0 0 6 0;
#X connect 1 0 2 0;
#X connect 1 1 5 0;
#X connect 2 0 3 0;
#X connect 3 0 4 0;
#X connect 3 0 8 0;
#X connect 4 0 3 1;
#X connect 5 0 3 1;
#X connect 6 0 1 0;
#X connect 7 0 10 0;
#X connect 8 0 7 0;
#X connect 8 1 10 1;
#X connect 8 2 9 0;
#X connect 9 0 10 2;
#X connect 10 0 11 0;
#X restore 388 318 pd fx-out-gain-unity;
#N canvas 764 138 409 468 fx-tap-out-gain-unity 0;
#X obj 59 21 inlet;
#X obj 59 83 t f b;
#X obj 60 112 until;
#X obj 80 154 f;
#X obj 110 156 + 1;
#X msg 113 119 0;
#X obj 59 61 value \$0-fx-list-length;
#X msg 80 214 0;
#X obj 80 185 t b f b;
#X msg 154 214 1;
#X obj 80 244 text get \$0-fx-list-text;
#X msg 80 281 \; \$1-tap-out-gain-set 100 \;;
#X connect 0 0 6 0;
#X connect 1 0 2 0;
#X connect 1 1 5 0;
#X connect 2 0 3 0;
#X connect 3 0 4 0;
#X connect 3 0 8 0;
#X connect 4 0 3 1;
#X connect 5 0 3 1;
#X connect 6 0 1 0;
#X connect 7 0 10 0;
#X connect 8 0 7 0;
#X connect 8 1 10 1;
#X connect 8 2 9 0;
#X connect 9 0 10 2;
#X connect 10 0 11 0;
#X restore 388 388 pd fx-tap-out-gain-unity;
#X obj 378 186 r \$0-global-ramp-time;
#N canvas 86 132 443 247 set-global-ramp-time 0;
#X obj 59 21 inlet;
#N canvas 182 261 569 538 set-input-fx-ramp-times 0;
#X obj 164 19 inlet;
#X obj 245 169 value \$0-source-list-length;
#X msg 353 300 0;
#X obj 353 271 t b f b;
#X msg 427 300 1;
#X obj 353 330 text get \$0-fx-list-text;
#X msg 141 300 0;
#X obj 141 271 t b f b;
#X msg 215 300 1;
#X obj 141 330 text get \$0-source-list-text;
#X obj 164 76 value \$0-fx-list-length;
#X msg 141 410 \; \$1-\$2-switch-ramp-time \$3 \;;
#X obj 164 41 t b f;
#X obj 141 375 pack s s f;
#X obj 164 110 t f b;
#N canvas 0 22 222 440 get-perms 0;
#X obj 53 17 inlet;
#X obj 40 126 until;
#X obj 60 168 f;
#X obj 90 170 + 1;
#X msg 93 133 0;
#X obj 33 242 until;
#X obj 33 283 f;
#X obj 33 376 outlet;
#X obj 63 285 + 1;
#X obj 33 219 f;
#X obj 60 190 t b f b;
#X msg 106 233 0;
#X obj 53 54 t b b f;
#X obj 38 91 f;
#X obj 113 376 outlet;
#X obj 33 305 t b f;
#X obj 33 327 f;
#X obj 143 17 inlet;
#X connect 0 0 12 0;
#X connect 1 0 2 0;
#X connect 2 0 3 0;
#X connect 2 0 10 0;
#X connect 3 0 2 1;
#X connect 4 0 2 1;
#X connect 5 0 6 0;
#X connect 6 0 8 0;
#X connect 6 0 15 0;
#X connect 8 0 6 1;
#X connect 9 0 5 0;
#X connect 10 0 9 0;
#X connect 10 1 16 1;
#X connect 10 2 11 0;
#X connect 11 0 6 1;
#X connect 12 0 13 0;
#X connect 12 1 4 0;
#X connect 12 2 9 1;
#X connect 13 0 1 0;
#X connect 15 0 16 0;
#X connect 15 1 14 0;
#X connect 16 0 7 0;
#X connect 17 0 13 1;
#X restore 141 217 pd get-perms;
#X connect 0 0 12 0;
#X connect 1 0 15 1;
#X connect 2 0 5 0;
#X connect 3 0 2 0;
#X connect 3 1 5 1;
#X connect 3 2 4 0;
#X connect 4 0 5 2;
#X connect 5 0 13 1;
#X connect 6 0 9 0;
#X connect 7 0 6 0;
#X connect 7 1 9 1;
#X connect 7 2 8 0;
#X connect 8 0 9 2;
#X connect 9 0 13 0;
#X connect 10 0 14 0;
#X connect 12 0 10 0;
#X connect 12 1 13 2;
#X connect 13 0 11 0;
#X connect 14 0 15 0;
#X connect 14 1 1 0;
#X connect 15 0 7 0;
#X connect 15 1 3 0;
#X restore 59 125 pd set-input-fx-ramp-times;
#N canvas 427 59 470 605 set-inter-fx-ramp-times 0;
#X obj 111 476 spigot;
#X obj 137 318 !=;
#X obj 50 40 inlet;
#X obj 50 229 t f f;
#X obj 50 129 t f f;
#X obj 50 92 value \$0-fx-list-length;
#X msg 229 361 0;
#X obj 229 332 t b f b;
#X msg 303 341 1;
#X obj 229 391 text get \$0-fx-list-text;
#X msg 50 361 0;
#X obj 50 332 t b f b;
#X msg 124 361 1;
#X obj 50 391 text get \$0-fx-list-text;
#X msg 111 520 \; \$1-\$2-switch-ramp-time \$3 \;;
#X obj 111 454 pack s s f;
#X obj 50 62 t b f;
#N canvas 0 22 222 440 get-perms 0;
#X obj 53 17 inlet;
#X obj 40 126 until;
#X obj 60 168 f;
#X obj 90 170 + 1;
#X msg 93 133 0;
#X obj 33 242 until;
#X obj 33 283 f;
#X obj 33 376 outlet;
#X obj 63 285 + 1;
#X obj 33 219 f;
#X obj 60 190 t b f b;
#X msg 106 233 0;
#X obj 53 54 t b b f;
#X obj 38 91 f;
#X obj 113 376 outlet;
#X obj 33 305 t b f;
#X obj 33 327 f;
#X obj 143 17 inlet;
#X connect 0 0 12 0;
#X connect 1 0 2 0;
#X connect 2 0 3 0;
#X connect 2 0 10 0;
#X connect 3 0 2 1;
#X connect 4 0 2 1;
#X connect 5 0 6 0;
#X connect 6 0 8 0;
#X connect 6 0 15 0;
#X connect 8 0 6 1;
#X connect 9 0 5 0;
#X connect 10 0 9 0;
#X connect 10 1 16 1;
#X connect 10 2 11 0;
#X connect 11 0 6 1;
#X connect 12 0 13 0;
#X connect 12 1 4 0;
#X connect 12 2 9 1;
#X connect 13 0 1 0;
#X connect 15 0 16 0;
#X connect 15 1 14 0;
#X connect 16 0 7 0;
#X connect 17 0 13 1;
#X restore 50 180 pd get-perms;
#X connect 0 0 14 0;
#X connect 1 0 0 1;
#X connect 2 0 16 0;
#X connect 3 0 11 0;
#X connect 3 1 1 0;
#X connect 4 0 17 0;
#X connect 4 1 17 1;
#X connect 5 0 4 0;
#X connect 6 0 9 0;
#X connect 7 0 6 0;
#X connect 7 1 9 1;
#X connect 7 2 8 0;
#X connect 8 0 9 2;
#X connect 9 0 15 1;
#X connect 10 0 13 0;
#X connect 11 0 10 0;
#X connect 11 1 13 1;
#X connect 11 2 12 0;
#X connect 12 0 13 2;
#X connect 13 0 15 0;
#X connect 15 0 0 0;
#X connect 16 0 5 0;
#X connect 16 1 15 2;
#X connect 17 0 3 0;
#X connect 17 1 7 0;
#X connect 17 1 1 1;
#X restore 79 85 pd set-inter-fx-ramp-times;
#X connect 0 0 1 0;
#X connect 0 0 2 0;
#X restore 378 208 pd set-global-ramp-time;
#X connect 0 0 2 0;
#X connect 1 0 4 0;
#X connect 2 0 3 0;
#X connect 5 0 6 0;
#X connect 7 0 5 0;
#X connect 8 0 14 0;
#X connect 9 0 12 0;
#X connect 10 0 13 0;
#X connect 11 0 15 0;
#X connect 16 0 17 0;
#X restore 223 174 pd other-interface;
#X obj 43 42 inlet;
#N canvas 193 28 752 792 message-parsing 0;
#X obj 50 26 inlet;
#X obj 100 560 list;
#X obj 50 650 list;
#X obj 50 710 list length;
#X obj 100 620 list length;
#X obj 120 590 text fromlist \$0-fx-list-text;
#X obj 70 680 text fromlist \$0-source-list-text;
#X obj 50 732 value \$0-source-list-length;
#X obj 100 642 value \$0-fx-list-length;
#X obj 200 460 s \$0-create-matrix;
#X obj 230 430 s \$0-destroy-matrix;
#X obj 260 400 s \$0-matrix-margin-x;
#X obj 290 370 s \$0-matrix-margin-y;
#X obj 320 340 s \$0-show-gui-matrix-controls;
#X obj 350 310 s \$0-global-ramp-time;
#X obj 380 280 s \$0-fx-clear-routing;
#X obj 409 250 s \$0-fx-out-gain-mute;
#X obj 439 220 s \$0-fx-tap-out-gain-mute;
#X obj 498 160 s \$0-fx-tap-out-gain-unity;
#X obj 468 190 s \$0-fx-out-gain-unity;
#X obj 528 130 s \$0-export;
#X obj 150 450 list;
#X obj 150 525 list length;
#X obj 150 547 value \$0-fx-param-list-length;
#X obj 170 498 text fromlist \$0-fx-param-list-text;
#X obj 50 48 route input-list fx-list fx-params create destroy matrix-margin-x
matrix-margin-y matrix global-ramp-time clear-routing fx-out-gain-mute
fx-tap-out-gain-mute fx-out-gain-unity fx-tap-out-gain-unity export
, f 70;
#X connect 0 0 25 0;
#X connect 1 0 4 0;
#X connect 1 0 5 0;
#X connect 2 0 3 0;
#X connect 2 0 6 0;
#X connect 3 0 7 0;
#X connect 4 0 8 0;
#X connect 21 0 22 0;
#X connect 21 0 24 0;
#X connect 22 0 23 0;
#X connect 25 0 2 0;
#X connect 25 1 1 0;
#X connect 25 2 21 0;
#X connect 25 3 9 0;
#X connect 25 4 10 0;
#X connect 25 5 11 0;
#X connect 25 6 12 0;
#X connect 25 7 13 0;
#X connect 25 8 14 0;
#X connect 25 9 15 0;
#X connect 25 10 16 0;
#X connect 25 11 17 0;
#X connect 25 12 19 0;
#X connect 25 13 18 0;
#X connect 25 14 20 0;
#X restore 43 64 pd message-parsing;
#N canvas 694 158 638 520 \$0-gui-matrix-controls 0;
#X restore 223 154 pd \$0-gui-matrix-controls;
#N canvas 248 64 1110 615 routing-preset-data 0;
#X obj 57 56 table \$0-inter-fx-switch-states;
#X obj 57 36 table \$0-input-fx-switch-states;
#X obj 98 347 *;
#X obj 98 369 pack f \$0;
#X obj 512 394 pack f \$0;
#X msg 512 416 \; \$2-inter-fx-switch-states resize \$1 \; \$2-inter-fx-switch-states
const 0 \;;
#X obj 512 342 *;
#X obj 512 364 -;
#N canvas 338 105 879 749 gen-gui-matrix-inter-fx-receives-content
0;
#X obj 189 476 i;
#X obj 383 214 f;
#X obj 413 216 + 1;
#X msg 398 184 0;
#X obj 291 20 inlet;
#X obj 353 177 until;
#X obj 69 528 + 50;
#X obj 69 482 % 4;
#X obj 189 520 + 50;
#X obj 189 454 / 4;
#X obj 210 359 f;
#X obj 260 353 + 1;
#X obj 172 336 until;
#X obj 96 670 pack f f f f f f f f f f f f f f s s \$0;
#X obj 352 505 f;
#X obj 367 573 + 1;
#X obj 397 573 + 2;
#X obj 427 573 + 3;
#X obj 69 550 t f f;
#X obj 115 584 + 25;
#X obj 189 542 t f f f f f f;
#X obj 135 614 + 25;
#X obj 175 614 + 50;
#X obj 215 614 + 75;
#X obj 255 614 + 100;
#X obj 295 614 + 150;
#X obj 172 290 f;
#X obj 291 71 t f b f;
#X obj 172 312 - 1;
#X obj 225 301 + 1;
#X obj 260 375 %;
#X obj 69 506 * 300;
#X obj 59 420 f;
#X obj 89 422 + 1;
#X msg 74 390 0;
#X obj 225 323 %;
#X obj 189 498 * 100;
#X obj 382 507 + 4;
#X msg 367 475 0;
#X obj 352 527 t f f f f;
#X obj 59 442 t f f f;
#N canvas 0 22 716 448 one-giant-message 0;
#X obj 67 58 inlet;
#X text 66 289 connect message has 4 values \; OBJ1 ID \, OBJ1 OUTLET
\, OBJ2 ID \, OBJ2 INLET;
#X text 68 345 Object indices need to be multiples of 4 of the control
number counter \, and then we need that multiple +1 +2 +3 as well.
;
#X text 460 109 \$1: origin X \; \$2: origin Y \; \$3: X+25 \; \$4:
Y+25 \; \$5: Y+50 \; \$6: Y+75 \; \$7: Y+100 \; \$8: Y+150 \; \$9:
object counter \; \$10: object counter+1 \; \$11: object counter+2
\; \$12: object counter+3 \; \$13: gui matrix control counter \; \$14:
NA \; \$15: FX name A \; \$16: FX name B \; \$17: dollar-0 \;;
#X msg 67 120 \; pd-\$17-gui-matrix-inter-fx-receives obj \$1 \$2 r
\$15-\$16-switch \; pd-\$17-gui-matrix-inter-fx-receives obj \$1 \$4
t f b \; pd-\$17-gui-matrix-inter-fx-receives msg \$3 \$5 \$13 \; pd-\$17-gui-matrix-inter-fx-receives
obj \$1 \$6 tabwrite \$17-inter-fx-switch-states \; \; pd-\$17-gui-matrix-inter-fx-receives
connect \$9 0 \$10 0 \; pd-\$17-gui-matrix-inter-fx-receives connect
\$10 1 \$11 0 \; pd-\$17-gui-matrix-inter-fx-receives connect \$10
0 \$12 0 \; pd-\$17-gui-matrix-inter-fx-receives connect \$11 0 \$12
1 \;;
#X connect 0 0 4 0;
#X restore 96 700 pd one-giant-message;
#X obj 504 161 f \$0;
#X msg 504 191 \; pd-\$1-gui-matrix-inter-fx-receives clear \;;
#X obj 291 49 value \$0-fx-list-length;
#X msg 636 562 0;
#X obj 636 533 t b f b;
#X msg 710 562 1;
#X obj 636 592 text get \$0-fx-list-text;
#X msg 476 562 0;
#X obj 476 533 t b f b;
#X msg 550 562 1;
#X obj 476 592 text get \$0-fx-list-text;
#X obj 383 250 t b f;
#X obj 210 395 t b b f;
#X obj 504 131 r \$0-drfx-lb1;
#X connect 0 0 36 0;
#X connect 1 0 2 0;
#X connect 1 0 53 0;
#X connect 2 0 1 1;
#X connect 3 0 1 1;
#X connect 4 0 44 0;
#X connect 5 0 1 0;
#X connect 6 0 18 0;
#X connect 7 0 31 0;
#X connect 8 0 20 0;
#X connect 9 0 0 0;
#X connect 10 0 11 0;
#X connect 10 0 54 0;
#X connect 11 0 30 0;
#X connect 12 0 10 0;
#X connect 13 0 41 0;
#X connect 14 0 37 0;
#X connect 14 0 39 0;
#X connect 15 0 13 9;
#X connect 16 0 13 10;
#X connect 17 0 13 11;
#X connect 18 0 13 0;
#X connect 18 1 19 0;
#X connect 19 0 13 2;
#X connect 20 0 13 1;
#X connect 20 1 21 0;
#X connect 20 2 22 0;
#X connect 20 3 23 0;
#X connect 20 4 24 0;
#X connect 20 5 25 0;
#X connect 21 0 13 3;
#X connect 22 0 13 4;
#X connect 23 0 13 5;
#X connect 24 0 13 6;
#X connect 25 0 13 7;
#X connect 26 0 28 0;
#X connect 27 0 5 0;
#X connect 27 1 3 0;
#X connect 27 1 38 0;
#X connect 27 1 34 0;
#X connect 27 1 42 0;
#X connect 27 2 26 1;
#X connect 27 2 30 1;
#X connect 27 2 35 1;
#X connect 28 0 12 0;
#X connect 29 0 35 0;
#X connect 30 0 10 1;
#X connect 31 0 6 0;
#X connect 32 0 33 0;
#X connect 32 0 40 0;
#X connect 33 0 32 1;
#X connect 34 0 32 1;
#X connect 35 0 10 1;
#X connect 36 0 8 0;
#X connect 37 0 14 1;
#X connect 38 0 14 1;
#X connect 39 0 13 8;
#X connect 39 1 15 0;
#X connect 39 2 16 0;
#X connect 39 3 17 0;
#X connect 40 0 7 0;
#X connect 40 1 9 0;
#X connect 40 2 13 12;
#X connect 42 0 43 0;
#X connect 44 0 27 0;
#X connect 45 0 48 0;
#X connect 46 0 45 0;
#X connect 46 1 48 1;
#X connect 46 2 47 0;
#X connect 47 0 48 2;
#X connect 48 0 13 15;
#X connect 49 0 52 0;
#X connect 50 0 49 0;
#X connect 50 1 52 1;
#X connect 50 2 51 0;
#X connect 51 0 52 2;
#X connect 52 0 13 14;
#X connect 53 0 26 0;
#X connect 53 1 50 0;
#X connect 53 1 29 0;
#X connect 54 0 32 0;
#X connect 54 1 14 0;
#X connect 54 2 46 0;
#X connect 55 0 42 0;
#X restore 384 547 pd gen-gui-matrix-inter-fx-receives-content;
#N canvas 722 160 1272 915 \$0-gui-matrix-inter-fx-receives 0;
#X restore 57 106 pd \$0-gui-matrix-inter-fx-receives;
#N canvas 242 23 913 742 gen-gui-matrix-input-fx-receives-content 0
;
#X obj 189 476 i;
#X obj 162 221 f;
#X obj 192 223 + 1;
#X msg 177 191 0;
#X obj 176 35 inlet;
#X obj 122 180 until;
#X obj 69 528 + 50;
#X obj 69 482 % 4;
#X obj 189 520 + 50;
#X obj 189 454 / 4;
#X obj 162 333 until;
#X obj 96 670 pack f f f f f f f f f f f f f f s s \$0;
#X obj 352 505 f;
#X obj 352 527 t f f f f f f;
#X obj 367 573 + 1;
#X obj 397 573 + 2;
#X obj 427 573 + 3;
#X obj 69 550 t f f;
#X obj 115 584 + 25;
#X obj 189 542 t f f f f f f;
#X obj 135 614 + 25;
#X obj 175 614 + 50;
#X obj 215 614 + 75;
#X obj 255 614 + 100;
#X obj 295 614 + 150;
#X obj 69 506 * 300;
#X obj 69 411 f;
#X obj 99 413 + 1;
#X msg 94 384 0;
#N canvas 696 23 773 444 one-giant-message 0;
#X obj 67 33 inlet;
#X text 66 239 connect message has 4 values \; OBJ1 ID \, OBJ1 OUTLET
\, OBJ2 ID \, OBJ2 INLET;
#X text 68 295 Object indices need to be multiples of 4 of the control
number counter \, and then we need that multiple +1 +2 +3 as well.
;
#X text 460 59 \$1: origin X \; \$2: origin Y \; \$3: X+25 \; \$4:
Y+25 \; \$5: Y+50 \; \$6: Y+75 \; \$7: Y+100 \; \$8: Y+150 \; \$9:
object counter \; \$10: object counter+1 \; \$11: object counter+2
\; \$12: object counter+3 \; \$13: gui matrix control counter \; \$14:
NA \; \$15: FX name A \; \$16: FX name B \; \$17: dollar-0 \;;
#X msg 67 70 \; pd-\$17-gui-matrix-input-fx-receives obj \$1 \$2 r
\$15-\$16-switch \; pd-\$17-gui-matrix-input-fx-receives obj \$1 \$4
t f b \; pd-\$17-gui-matrix-input-fx-receives msg \$3 \$5 \$13 \; pd-\$17-gui-matrix-input-fx-receives
obj \$1 \$6 tabwrite \$17-input-fx-switch-states \; \; pd-\$17-gui-matrix-input-fx-receives
connect \$9 0 \$10 0 \; pd-\$17-gui-matrix-input-fx-receives connect
\$10 1 \$11 0 \; pd-\$17-gui-matrix-input-fx-receives connect \$10
0 \$12 0 \; pd-\$17-gui-matrix-input-fx-receives connect \$11 0 \$12
1 \;;
#X connect 0 0 4 0;
#X restore 96 698 pd one-giant-message;
#X obj 162 395 f;
#X obj 192 397 + 1;
#X msg 177 365 0;
#X obj 382 507 + 4;
#X msg 367 475 0;
#X obj 269 40 f \$0;
#X obj 162 256 t b b f b b;
#X obj 176 138 t f b;
#X obj 69 433 t f f f;
#X obj 189 498 * 100;
#X msg 269 70 \; pd-\$1-gui-matrix-input-fx-receives clear \;;
#X obj 162 306 value \$0-fx-list-length;
#X msg 685 563 0;
#X obj 685 534 t b f b;
#X msg 759 563 1;
#X obj 685 593 text get \$0-fx-list-text;
#X msg 490 563 0;
#X obj 490 534 t b f b;
#X msg 564 563 1;
#X obj 490 593 text get \$0-source-list-text;
#X obj 176 116 value \$0-source-list-length;
#X obj 176 89 t b b;
#X obj 162 420 t b b f;
#X obj 269 15 r \$0-drfx-lb1;
#X connect 0 0 39 0;
#X connect 1 0 2 0;
#X connect 1 0 36 0;
#X connect 2 0 1 1;
#X connect 3 0 1 1;
#X connect 4 0 51 0;
#X connect 5 0 1 0;
#X connect 6 0 17 0;
#X connect 7 0 25 0;
#X connect 8 0 19 0;
#X connect 9 0 0 0;
#X connect 10 0 30 0;
#X connect 11 0 29 0;
#X connect 12 0 13 0;
#X connect 12 0 33 0;
#X connect 13 0 11 8;
#X connect 13 1 14 0;
#X connect 13 2 15 0;
#X connect 13 3 16 0;
#X connect 14 0 11 9;
#X connect 15 0 11 10;
#X connect 16 0 11 11;
#X connect 17 0 11 0;
#X connect 17 1 18 0;
#X connect 18 0 11 2;
#X connect 19 0 11 1;
#X connect 19 1 20 0;
#X connect 19 2 21 0;
#X connect 19 3 22 0;
#X connect 19 4 23 0;
#X connect 19 5 24 0;
#X connect 20 0 11 3;
#X connect 21 0 11 4;
#X connect 22 0 11 5;
#X connect 23 0 11 6;
#X connect 24 0 11 7;
#X connect 25 0 6 0;
#X connect 26 0 27 0;
#X connect 26 0 38 0;
#X connect 27 0 26 1;
#X connect 28 0 26 1;
#X connect 30 0 31 0;
#X connect 30 0 52 0;
#X connect 31 0 30 1;
#X connect 32 0 30 1;
#X connect 33 0 12 1;
#X connect 34 0 12 1;
#X connect 35 0 40 0;
#X connect 36 0 41 0;
#X connect 36 2 47 0;
#X connect 36 3 32 0;
#X connect 37 0 5 0;
#X connect 37 1 3 0;
#X connect 37 1 34 0;
#X connect 37 1 28 0;
#X connect 38 0 7 0;
#X connect 38 1 9 0;
#X connect 38 2 11 12;
#X connect 39 0 8 0;
#X connect 41 0 10 0;
#X connect 42 0 45 0;
#X connect 43 0 42 0;
#X connect 43 1 45 1;
#X connect 43 2 44 0;
#X connect 44 0 45 2;
#X connect 45 0 11 15;
#X connect 46 0 49 0;
#X connect 47 0 46 0;
#X connect 47 1 49 1;
#X connect 47 2 48 0;
#X connect 48 0 49 2;
#X connect 49 0 11 14;
#X connect 50 0 37 0;
#X connect 51 0 50 0;
#X connect 51 1 35 0;
#X connect 52 0 26 0;
#X connect 52 1 12 0;
#X connect 52 2 43 0;
#X connect 53 0 35 0;
#X restore 57 450 pd gen-gui-matrix-input-fx-receives-content;
#N canvas 563 23 1198 465 \$0-gui-matrix-input-fx-receives 0;
#X restore 57 86 pd \$0-gui-matrix-input-fx-receives;
#X msg 98 391 \; \$2-input-fx-switch-states resize \$1 \; \$2-input-fx-switch-states
const 0 \;;
#X obj 387 36 table \$0-fx-out-gains;
#X obj 387 56 table \$0-fx-tap-out-gains;
#X obj 512 272 t f f f f;
#X obj 581 304 pack f \$0;
#N canvas 127 216 1198 465 \$0-fx-out-gain-receives 0;
#X restore 387 86 pd \$0-fx-out-gain-receives;
#N canvas 34 191 1198 465 \$0-fx-tap-out-gain-receives 0;
#X restore 387 106 pd \$0-fx-tap-out-gain-receives;
#N canvas 615 138 737 698 gen-fx-out-gain-receives-content 0;
#X obj 191 387 i;
#X obj 210 197 f;
#X obj 240 199 + 1;
#X msg 225 167 0;
#X obj 293 31 inlet;
#X obj 180 160 until;
#X obj 71 439 + 50;
#X obj 71 393 % 4;
#X obj 191 431 + 50;
#X obj 191 365 / 4;
#X obj 98 581 pack f f f f f f f f f f f f f f s s \$0;
#X obj 354 416 f;
#X obj 369 484 + 1;
#X obj 399 484 + 2;
#X obj 429 484 + 3;
#X obj 71 461 t f f;
#X obj 117 495 + 25;
#X obj 191 453 t f f f f f f;
#X obj 137 525 + 25;
#X obj 177 525 + 50;
#X obj 217 525 + 75;
#X obj 257 525 + 100;
#X obj 297 525 + 150;
#X obj 71 417 * 300;
#X obj 61 331 f;
#X obj 91 333 + 1;
#X msg 76 301 0;
#X obj 191 409 * 100;
#X obj 384 418 + 4;
#X msg 369 386 0;
#X obj 354 438 t f f f f;
#X obj 61 353 t f f f;
#N canvas 0 23 716 448 one-giant-message 0;
#X obj 67 58 inlet;
#X text 66 289 connect message has 4 values \; OBJ1 ID \, OBJ1 OUTLET
\, OBJ2 ID \, OBJ2 INLET;
#X text 68 345 Object indices need to be multiples of 4 of the control
number counter \, and then we need that multiple +1 +2 +3 as well.
;
#X text 460 109 \$1: origin X \; \$2: origin Y \; \$3: X+25 \; \$4:
Y+25 \; \$5: Y+50 \; \$6: Y+75 \; \$7: Y+100 \; \$8: Y+150 \; \$9:
object counter \; \$10: object counter+1 \; \$11: object counter+2
\; \$12: object counter+3 \; \$13: gui matrix control counter \; \$14:
NA \; \$15: FX name A \; \$16: FX name B \; \$17: dollar-0 \;;
#X msg 67 120 \; pd-\$17-fx-out-gain-receives obj \$1 \$2 r \$15-out-gain
\; pd-\$17-fx-out-gain-receives obj \$1 \$4 t f b \; pd-\$17-fx-out-gain-receives
msg \$3 \$5 \$13 \; pd-\$17-fx-out-gain-receives obj \$1 \$6 tabwrite
\$17-fx-out-gains \; \; pd-\$17-fx-out-gain-receives connect \$9 0
\$10 0 \; pd-\$17-fx-out-gain-receives connect \$10 1 \$11 0 \; pd-\$17-fx-out-gain-receives
connect \$10 0 \$12 0 \; pd-\$17-fx-out-gain-receives connect \$11
0 \$12 1 \;;
#X connect 0 0 4 0;
#X restore 98 611 pd one-giant-message;
#X obj 466 199 f \$0;
#X msg 466 229 \; pd-\$1-fx-out-gain-receives clear \;;
#X obj 293 85 t f b;
#X obj 293 60 value \$0-fx-list-length;
#X msg 485 475 0;
#X obj 485 446 t b f b;
#X msg 559 475 1;
#X obj 485 505 text get \$0-fx-list-text;
#X obj 210 231 t b b f;
#X obj 466 169 r \$0-drfx-lb1;
#X connect 0 0 27 0;
#X connect 1 0 2 0;
#X connect 1 0 41 0;
#X connect 2 0 1 1;
#X connect 3 0 1 1;
#X connect 4 0 36 0;
#X connect 5 0 1 0;
#X connect 6 0 15 0;
#X connect 7 0 23 0;
#X connect 8 0 17 0;
#X connect 9 0 0 0;
#X connect 10 0 32 0;
#X connect 11 0 28 0;
#X connect 11 0 30 0;
#X connect 12 0 10 9;
#X connect 13 0 10 10;
#X connect 14 0 10 11;
#X connect 15 0 10 0;
#X connect 15 1 16 0;
#X connect 16 0 10 2;
#X connect 17 0 10 1;
#X connect 17 1 18 0;
#X connect 17 2 19 0;
#X connect 17 3 20 0;
#X connect 17 4 21 0;
#X connect 17 5 22 0;
#X connect 18 0 10 3;
#X connect 19 0 10 4;
#X connect 20 0 10 5;
#X connect 21 0 10 6;
#X connect 22 0 10 7;
#X connect 23 0 6 0;
#X connect 24 0 25 0;
#X connect 24 0 31 0;
#X connect 25 0 24 1;
#X connect 26 0 24 1;
#X connect 27 0 8 0;
#X connect 28 0 11 1;
#X connect 29 0 11 1;
#X connect 30 0 10 8;
#X connect 30 1 12 0;
#X connect 30 2 13 0;
#X connect 30 3 14 0;
#X connect 31 0 7 0;
#X connect 31 1 9 0;
#X connect 31 2 10 12;
#X connect 33 0 34 0;
#X connect 35 0 5 0;
#X connect 35 1 3 0;
#X connect 35 1 29 0;
#X connect 35 1 26 0;
#X connect 35 1 33 0;
#X connect 36 0 35 0;
#X connect 37 0 40 0;
#X connect 38 0 37 0;
#X connect 38 1 40 1;
#X connect 38 2 39 0;
#X connect 39 0 40 2;
#X connect 40 0 10 14;
#X connect 41 0 24 0;
#X connect 41 1 11 0;
#X connect 41 2 38 0;
#X connect 42 0 33 0;
#X restore 428 520 pd gen-fx-out-gain-receives-content;
#N canvas 669 174 696 735 gen-fx-tap-out-gain-receives-content 0;
#X obj 170 432 i;
#X obj 189 182 f;
#X obj 219 184 + 1;
#X msg 204 152 0;
#X obj 272 16 inlet;
#X obj 159 145 until;
#X obj 50 484 + 50;
#X obj 50 438 % 4;
#X obj 170 476 + 50;
#X obj 170 410 / 4;
#X obj 77 626 pack f f f f f f f f f f f f f f s s \$0;
#X obj 333 461 f;
#X obj 348 529 + 1;
#X obj 378 529 + 2;
#X obj 408 529 + 3;
#X obj 50 506 t f f;
#X obj 96 540 + 25;
#X obj 170 498 t f f f f f f;
#X obj 116 570 + 25;
#X obj 156 570 + 50;
#X obj 196 570 + 75;
#X obj 236 570 + 100;
#X obj 276 570 + 150;
#X obj 50 462 * 300;
#X obj 189 346 f;
#X obj 219 348 + 1;
#X msg 204 316 0;
#X obj 170 454 * 100;
#X obj 363 463 + 4;
#X msg 348 431 0;
#X obj 333 483 t f f f f;
#X obj 189 368 t f f f;
#N canvas 53 379 716 448 one-giant-message 0;
#X obj 67 58 inlet;
#X text 66 289 connect message has 4 values \; OBJ1 ID \, OBJ1 OUTLET
\, OBJ2 ID \, OBJ2 INLET;
#X text 68 345 Object indices need to be multiples of 4 of the control
number counter \, and then we need that multiple +1 +2 +3 as well.
;
#X msg 67 120 \; pd-\$17-fx-tap-out-gain-receives obj \$1 \$2 r \$15-tap-out-gain
\; pd-\$17-fx-tap-out-gain-receives obj \$1 \$4 t f b \; pd-\$17-fx-tap-out-gain-receives
msg \$3 \$5 \$13 \; pd-\$17-fx-tap-out-gain-receives obj \$1 \$6 tabwrite
\$17-fx-tap-out-gains \; \; pd-\$17-fx-tap-out-gain-receives connect
\$9 0 \$10 0 \; pd-\$17-fx-tap-out-gain-receives connect \$10 1 \$11
0 \; pd-\$17-fx-tap-out-gain-receives connect \$10 0 \$12 0 \; pd-\$17-fx-tap-out-gain-receives
connect \$11 0 \$12 1 \;;
#X text 460 109 \$1: origin X \; \$2: origin Y \; \$3: X+25 \; \$4:
Y+25 \; \$5: Y+50 \; \$6: Y+75 \; \$7: Y+100 \; \$8: Y+150 \; \$9:
object counter \; \$10: object counter+1 \; \$11: object counter+2
\; \$12: object counter+3 \; \$13: gui matrix control counter \; \$14:
NA \; \$15: FX name A \; \$16: NA \; \$17: dollar-0 \;;
#X connect 0 0 3 0;
#X restore 77 656 pd one-giant-message;
#X obj 387 225 f \$0;
#X msg 387 255 \; pd-\$1-fx-tap-out-gain-receives clear \;;
#X obj 272 67 t f b;
#X obj 272 45 value \$0-fx-list-length;
#X msg 478 526 0;
#X obj 478 497 t b f b;
#X msg 552 526 1;
#X obj 478 556 text get \$0-fx-list-text;
#X obj 189 246 t b b f;
#X obj 387 196 r \$0-drfx-lb1;
#X connect 0 0 27 0;
#X connect 1 0 2 0;
#X connect 1 0 41 0;
#X connect 2 0 1 1;
#X connect 3 0 1 1;
#X connect 4 0 36 0;
#X connect 5 0 1 0;
#X connect 6 0 15 0;
#X connect 7 0 23 0;
#X connect 8 0 17 0;
#X connect 9 0 0 0;
#X connect 10 0 32 0;
#X connect 11 0 28 0;
#X connect 11 0 30 0;
#X connect 12 0 10 9;
#X connect 13 0 10 10;
#X connect 14 0 10 11;
#X connect 15 0 10 0;
#X connect 15 1 16 0;
#X connect 16 0 10 2;
#X connect 17 0 10 1;
#X connect 17 1 18 0;
#X connect 17 2 19 0;
#X connect 17 3 20 0;
#X connect 17 4 21 0;
#X connect 17 5 22 0;
#X connect 18 0 10 3;
#X connect 19 0 10 4;
#X connect 20 0 10 5;
#X connect 21 0 10 6;
#X connect 22 0 10 7;
#X connect 23 0 6 0;
#X connect 24 0 25 0;
#X connect 24 0 31 0;
#X connect 25 0 24 1;
#X connect 26 0 24 1;
#X connect 27 0 8 0;
#X connect 28 0 11 1;
#X connect 29 0 11 1;
#X connect 30 0 10 8;
#X connect 30 1 12 0;
#X connect 30 2 13 0;
#X connect 30 3 14 0;
#X connect 31 0 7 0;
#X connect 31 1 9 0;
#X connect 31 2 10 12;
#X connect 33 0 34 0;
#X connect 35 0 5 0;
#X connect 35 1 3 0;
#X connect 35 1 29 0;
#X connect 35 1 26 0;
#X connect 35 1 33 0;
#X connect 36 0 35 0;
#X connect 37 0 40 0;
#X connect 38 0 37 0;
#X connect 38 1 40 1;
#X connect 38 2 39 0;
#X connect 39 0 40 2;
#X connect 40 0 10 14;
#X connect 41 0 24 0;
#X connect 41 1 11 0;
#X connect 41 2 38 0;
#X connect 42 0 33 0;
#X restore 468 490 pd gen-fx-tap-out-gain-receives-content;
#X obj 98 245 value \$0-fx-list-length;
#X obj 148 315 value \$0-source-list-length;
#X obj 512 250 value \$0-fx-list-length;
#X obj 657 36 table \$0-fx-param-values;
#N canvas 78 427 1294 571 \$0-fx-param-value-receives 0;
#X restore 657 86 pd \$0-fx-param-value-receives;
#X obj 861 314 pack f \$0;
#X obj 861 290 value \$0-fx-param-list-length;
#X msg 861 334 \; \$2-fx-param-values resize \$1 \; \$2-fx-param-values
const 0 \;;
#N canvas 559 102 696 735 gen-fx-param-value-receives-content 0;
#X obj 170 432 i;
#X obj 189 182 f;
#X obj 219 184 + 1;
#X msg 204 152 0;
#X obj 272 16 inlet;
#X obj 159 145 until;
#X obj 50 484 + 50;
#X obj 50 438 % 4;
#X obj 170 476 + 50;
#X obj 170 410 / 4;
#X obj 77 626 pack f f f f f f f f f f f f f f s s \$0;
#X obj 333 461 f;
#X obj 348 529 + 1;
#X obj 378 529 + 2;
#X obj 408 529 + 3;
#X obj 50 506 t f f;
#X obj 96 540 + 25;
#X obj 170 498 t f f f f f f;
#X obj 116 570 + 25;
#X obj 156 570 + 50;
#X obj 196 570 + 75;
#X obj 236 570 + 100;
#X obj 276 570 + 150;
#X obj 50 462 * 300;
#X obj 189 346 f;
#X obj 219 348 + 1;
#X msg 204 316 0;
#X obj 170 454 * 100;
#X obj 363 463 + 4;
#X msg 348 431 0;
#X obj 333 483 t f f f f;
#X obj 189 368 t f f f;
#N canvas 52 160 716 448 one-giant-message 0;
#X obj 67 58 inlet;
#X text 66 289 connect message has 4 values \; OBJ1 ID \, OBJ1 OUTLET
\, OBJ2 ID \, OBJ2 INLET;
#X text 68 345 Object indices need to be multiples of 4 of the control
number counter \, and then we need that multiple +1 +2 +3 as well.
;
#X text 460 109 \$1: origin X \; \$2: origin Y \; \$3: X+25 \; \$4:
Y+25 \; \$5: Y+50 \; \$6: Y+75 \; \$7: Y+100 \; \$8: Y+150 \; \$9:
object counter \; \$10: object counter+1 \; \$11: object counter+2
\; \$12: object counter+3 \; \$13: gui matrix control counter \; \$14:
NA \; \$15: FX param name A \; \$16: NA \; \$17: dollar-0 \;;
#X msg 67 120 \; pd-\$17-fx-param-value-receives obj \$1 \$2 r \$15
\; pd-\$17-fx-param-value-receives obj \$1 \$4 t f b \; pd-\$17-fx-param-value-receives
msg \$3 \$5 \$13 \; pd-\$17-fx-param-value-receives obj \$1 \$6 tabwrite
\$17-fx-param-values \; \; pd-\$17-fx-param-value-receives connect
\$9 0 \$10 0 \; pd-\$17-fx-param-value-receives connect \$10 1 \$11
0 \; pd-\$17-fx-param-value-receives connect \$10 0 \$12 0 \; pd-\$17-fx-param-value-receives
connect \$11 0 \$12 1 \;;
#X connect 0 0 4 0;
#X restore 77 656 pd one-giant-message;
#X obj 387 225 f \$0;
#X obj 272 67 t f b;
#X msg 478 526 0;
#X obj 478 497 t b f b;
#X msg 552 526 1;
#X obj 189 246 t b b f;
#X obj 272 45 value \$0-fx-param-list-length;
#X msg 387 255 \; pd-\$1-fx-param-value-receives clear \;;
#X obj 478 556 text get \$0-fx-param-list-text;
#X obj 387 195 r \$0-drfx-lb1;
#X connect 0 0 27 0;
#X connect 1 0 2 0;
#X connect 1 0 38 0;
#X connect 2 0 1 1;
#X connect 3 0 1 1;
#X connect 4 0 39 0;
#X connect 5 0 1 0;
#X connect 6 0 15 0;
#X connect 7 0 23 0;
#X connect 8 0 17 0;
#X connect 9 0 0 0;
#X connect 10 0 32 0;
#X connect 11 0 28 0;
#X connect 11 0 30 0;
#X connect 12 0 10 9;
#X connect 13 0 10 10;
#X connect 14 0 10 11;
#X connect 15 0 10 0;
#X connect 15 1 16 0;
#X connect 16 0 10 2;
#X connect 17 0 10 1;
#X connect 17 1 18 0;
#X connect 17 2 19 0;
#X connect 17 3 20 0;
#X connect 17 4 21 0;
#X connect 17 5 22 0;
#X connect 18 0 10 3;
#X connect 19 0 10 4;
#X connect 20 0 10 5;
#X connect 21 0 10 6;
#X connect 22 0 10 7;
#X connect 23 0 6 0;
#X connect 24 0 25 0;
#X connect 24 0 31 0;
#X connect 25 0 24 1;
#X connect 26 0 24 1;
#X connect 27 0 8 0;
#X connect 28 0 11 1;
#X connect 29 0 11 1;
#X connect 30 0 10 8;
#X connect 30 1 12 0;
#X connect 30 2 13 0;
#X connect 30 3 14 0;
#X connect 31 0 7 0;
#X connect 31 1 9 0;
#X connect 31 2 10 12;
#X connect 33 0 40 0;
#X connect 34 0 5 0;
#X connect 34 1 3 0;
#X connect 34 1 29 0;
#X connect 34 1 26 0;
#X connect 34 1 33 0;
#X connect 35 0 41 0;
#X connect 36 0 35 0;
#X connect 36 1 41 1;
#X connect 36 2 37 0;
#X connect 37 0 41 2;
#X connect 38 0 24 0;
#X connect 38 1 11 0;
#X connect 38 2 36 0;
#X connect 39 0 34 0;
#X connect 41 0 10 14;
#X connect 42 0 33 0;
#X restore 798 410 pd gen-fx-param-value-receives-content;
#X msg 581 324 \; \$2-fx-out-gains resize \$1 \; \$2-fx-tap-out-gains
resize \$1 \; \$2-fx-out-gains const 0 \; \$2-fx-tap-out-gains const
0 \;;
#X obj 16 530 outlet;
#X obj 57 146 inlet;
#X obj 57 166 t b b b b b b b b b b, f 133;
#X connect 2 0 3 0;
#X connect 3 0 12 0;
#X connect 4 0 5 0;
#X connect 6 0 7 0;
#X connect 7 0 4 0;
#X connect 15 0 6 0;
#X connect 15 1 6 1;
#X connect 15 2 7 1;
#X connect 15 3 16 0;
#X connect 16 0 30 0;
#X connect 21 0 2 0;
#X connect 22 0 2 1;
#X connect 23 0 15 0;
#X connect 26 0 28 0;
#X connect 27 0 26 0;
#X connect 32 0 33 0;
#X connect 33 0 31 0;
#X connect 33 1 10 0;
#X connect 33 2 21 0;
#X connect 33 3 22 0;
#X connect 33 4 8 0;
#X connect 33 5 19 0;
#X connect 33 6 20 0;
#X connect 33 7 23 0;
#X connect 33 8 29 0;
#X connect 33 9 27 0;
#X restore 43 194 pd routing-preset-data;
#N canvas 500 381 743 476 export-preset 0;
#X obj 227 407 textfile;
#X msg 371 196 clear \, rewind;
#N canvas 51 23 810 765 input-fx-stuff 0;
#X obj 144 160 f;
#X obj 174 162 + 1;
#X msg 159 130 0;
#X obj 114 107 until;
#X obj 143 278 until;
#X obj 143 330 f;
#X obj 173 332 + 1;
#X msg 158 300 0;
#X obj 158 67 t f b;
#X obj 459 529 f;
#X obj 489 531 + 1;
#X msg 474 499 0;
#X obj 451 557 tabread \$0-input-fx-switch-states;
#X obj 278 633 pack s f;
#X obj 167 588 makefilename not-set-yet;
#X msg 222 557 set \$1;
#X obj 222 535 makefilename %s-%%s-switch-set;
#X obj 278 655 list prepend add;
#X obj 278 677 list trim;
#X obj 158 11 inlet;
#X text 405 656 Semicolon termination done in [textfile];
#X obj 278 699 outlet;
#X msg 48 478 0;
#X obj 48 449 t b f b;
#X msg 122 478 1;
#X obj 48 508 text get \$0-fx-list-text;
#X msg 222 478 0;
#X obj 222 449 t b f b;
#X msg 296 478 1;
#X obj 222 508 text get \$0-source-list-text;
#X obj 158 45 value \$0-source-list-length;
#X obj 144 251 value \$0-fx-list-length;
#X obj 143 352 t f b;
#X obj 144 195 t b f b;
#X connect 0 0 1 0;
#X connect 0 0 33 0;
#X connect 1 0 0 1;
#X connect 2 0 0 1;
#X connect 3 0 0 0;
#X connect 4 0 5 0;
#X connect 5 0 6 0;
#X connect 5 0 32 0;
#X connect 6 0 5 1;
#X connect 7 0 5 1;
#X connect 8 0 3 0;
#X connect 8 1 2 0;
#X connect 8 1 11 0;
#X connect 9 0 10 0;
#X connect 9 0 12 0;
#X connect 10 0 9 1;
#X connect 11 0 9 1;
#X connect 12 0 13 1;
#X connect 13 0 17 0;
#X connect 14 0 13 0;
#X connect 15 0 14 0;
#X connect 16 0 15 0;
#X connect 17 0 18 0;
#X connect 18 0 21 0;
#X connect 19 0 30 0;
#X connect 22 0 25 0;
#X connect 23 0 22 0;
#X connect 23 1 25 1;
#X connect 23 2 24 0;
#X connect 24 0 25 2;
#X connect 25 0 14 0;
#X connect 26 0 29 0;
#X connect 27 0 26 0;
#X connect 27 1 29 1;
#X connect 27 2 28 0;
#X connect 28 0 29 2;
#X connect 29 0 16 0;
#X connect 30 0 8 0;
#X connect 31 0 4 0;
#X connect 32 0 23 0;
#X connect 32 1 9 0;
#X connect 33 0 31 0;
#X connect 33 1 27 0;
#X connect 33 2 7 0;
#X restore 164 337 pd input-fx-stuff;
#N canvas 0 22 894 576 inter-fx-stuff 0;
#X obj 185 7 inlet;
#X obj 111 177 f;
#X obj 141 179 + 1;
#X msg 126 147 0;
#X obj 81 140 until;
#X obj 173 370 f;
#X obj 223 364 + 1;
#X obj 135 347 until;
#X obj 135 301 f;
#X obj 185 100 t f b f;
#X obj 135 323 - 1;
#X obj 188 312 + 1;
#X obj 223 386 %;
#X obj 654 306 f;
#X obj 684 308 + 1;
#X msg 669 276 0;
#X obj 188 334 %;
#X obj 481 492 outlet;
#X obj 481 440 list prepend add;
#X obj 481 462 list trim;
#X obj 481 410 pack s f;
#X obj 370 365 makefilename not-set-yet;
#X msg 425 334 set \$1;
#X obj 425 312 makefilename %s-%%s-switch-set;
#X obj 654 334 tabread \$0-inter-fx-switch-states;
#X obj 185 78 value \$0-fx-list-length;
#X msg 425 253 0;
#X obj 425 224 t b f b;
#X msg 499 253 1;
#X obj 425 283 text get \$0-fx-list-text;
#X msg 271 253 0;
#X obj 271 224 t b f b;
#X msg 345 253 1;
#X obj 271 283 text get \$0-fx-list-text;
#X obj 111 208 t b f f;
#X obj 173 415 t f b;
#X connect 0 0 25 0;
#X connect 1 0 2 0;
#X connect 1 0 34 0;
#X connect 2 0 1 1;
#X connect 3 0 1 1;
#X connect 4 0 1 0;
#X connect 5 0 6 0;
#X connect 5 0 35 0;
#X connect 6 0 12 0;
#X connect 7 0 5 0;
#X connect 8 0 10 0;
#X connect 9 0 4 0;
#X connect 9 1 3 0;
#X connect 9 1 15 0;
#X connect 9 2 8 1;
#X connect 9 2 12 1;
#X connect 9 2 16 1;
#X connect 10 0 7 0;
#X connect 11 0 16 0;
#X connect 12 0 5 1;
#X connect 13 0 14 0;
#X connect 13 0 24 0;
#X connect 14 0 13 1;
#X connect 15 0 13 1;
#X connect 16 0 5 1;
#X connect 18 0 19 0;
#X connect 19 0 17 0;
#X connect 20 0 18 0;
#X connect 21 0 20 0;
#X connect 22 0 21 0;
#X connect 23 0 22 0;
#X connect 24 0 20 1;
#X connect 25 0 9 0;
#X connect 26 0 29 0;
#X connect 27 0 26 0;
#X connect 27 1 29 1;
#X connect 27 2 28 0;
#X connect 28 0 29 2;
#X connect 29 0 23 0;
#X connect 30 0 33 0;
#X connect 31 0 30 0;
#X connect 31 1 33 1;
#X connect 31 2 32 0;
#X connect 32 0 33 2;
#X connect 33 0 21 0;
#X connect 34 0 8 0;
#X connect 34 1 11 0;
#X connect 34 2 27 0;
#X connect 35 0 31 0;
#X connect 35 1 13 0;
#X restore 144 307 pd inter-fx-stuff;
#X msg 299 230 add;
#X text 335 230 Just a blank line to separate the input vs the inter
stuff;
#X obj 150 48 r \$0-export;
#X msg 64 187 write \$1;
#X obj 64 157 symbol;
#N canvas 0 22 494 622 out-gain-stuff 0;
#X obj 97 16 inlet;
#X obj 63 204 f;
#X obj 93 206 + 1;
#X msg 78 174 0;
#X obj 33 167 until;
#X obj 261 397 f;
#X obj 291 399 + 1;
#X msg 276 367 0;
#X obj 174 526 outlet;
#X obj 174 474 list prepend add;
#X obj 174 496 list trim;
#X obj 174 444 pack s f;
#X obj 63 399 makefilename %s-out-gain-set;
#X obj 261 425 tabread \$0-fx-out-gains;
#X obj 97 86 value \$0-fx-list-length;
#X obj 97 109 t f b;
#X msg 63 316 0;
#X obj 63 287 t b f b;
#X msg 137 316 1;
#X obj 63 346 text get \$0-fx-list-text;
#X obj 63 240 t f b;
#X connect 0 0 14 0;
#X connect 1 0 2 0;
#X connect 1 0 20 0;
#X connect 2 0 1 1;
#X connect 3 0 1 1;
#X connect 4 0 1 0;
#X connect 5 0 6 0;
#X connect 5 0 13 0;
#X connect 6 0 5 1;
#X connect 7 0 5 1;
#X connect 9 0 10 0;
#X connect 10 0 8 0;
#X connect 11 0 9 0;
#X connect 12 0 11 0;
#X connect 13 0 11 1;
#X connect 14 0 15 0;
#X connect 15 0 4 0;
#X connect 15 1 3 0;
#X connect 15 1 7 0;
#X connect 16 0 19 0;
#X connect 17 0 16 0;
#X connect 17 1 19 1;
#X connect 17 2 18 0;
#X connect 18 0 19 2;
#X connect 19 0 12 0;
#X connect 20 0 17 0;
#X connect 20 1 5 0;
#X restore 124 277 pd out-gain-stuff;
#N canvas 0 22 494 622 tap-out-gain-stuff 0;
#X obj 97 16 inlet;
#X obj 63 204 f;
#X obj 93 206 + 1;
#X msg 78 174 0;
#X obj 33 167 until;
#X obj 281 397 f;
#X obj 311 399 + 1;
#X msg 296 367 0;
#X obj 174 526 outlet;
#X obj 174 474 list prepend add;
#X obj 174 496 list trim;
#X obj 174 444 pack s f;
#X obj 281 425 tabread \$0-fx-tap-out-gains;
#X obj 42 399 makefilename %s-tap-out-gain-set;
#X obj 97 87 value \$0-fx-list-length;
#X msg 42 321 0;
#X obj 42 292 t b f b;
#X msg 116 321 1;
#X obj 42 351 text get \$0-fx-list-text;
#X obj 63 240 t f b;
#X obj 97 109 t f b;
#X connect 0 0 14 0;
#X connect 1 0 2 0;
#X connect 1 0 19 0;
#X connect 2 0 1 1;
#X connect 3 0 1 1;
#X connect 4 0 1 0;
#X connect 5 0 6 0;
#X connect 5 0 12 0;
#X connect 6 0 5 1;
#X connect 7 0 5 1;
#X connect 9 0 10 0;
#X connect 10 0 8 0;
#X connect 11 0 9 0;
#X connect 12 0 11 1;
#X connect 13 0 11 0;
#X connect 14 0 20 0;
#X connect 15 0 18 0;
#X connect 16 0 15 0;
#X connect 16 1 18 1;
#X connect 16 2 17 0;
#X connect 17 0 18 2;
#X connect 18 0 13 0;
#X connect 19 0 16 0;
#X connect 19 1 5 0;
#X connect 20 0 4 0;
#X connect 20 1 3 0;
#X connect 20 1 7 0;
#X restore 104 247 pd tap-out-gain-stuff;
#N canvas 0 22 539 599 param-stuff 0;
#X obj 97 85 value \$0-fx-param-list-length;
#X obj 174 526 outlet;
#X obj 97 46 inlet;
#X obj 63 204 f;
#X obj 93 206 + 1;
#X msg 78 174 0;
#X obj 33 167 until;
#X obj 271 347 f;
#X obj 301 349 + 1;
#X msg 286 317 0;
#X obj 174 474 list prepend add;
#X obj 174 496 list trim;
#X obj 174 444 pack s f;
#X msg 42 321 0;
#X obj 42 292 t b f b;
#X msg 116 321 1;
#X obj 63 240 t f b;
#X obj 97 109 t f b;
#X obj 42 399 makefilename %s-set;
#X obj 42 351 text get \$0-fx-param-list-text;
#X obj 271 375 tabread \$0-fx-param-values;
#X connect 0 0 17 0;
#X connect 2 0 0 0;
#X connect 3 0 4 0;
#X connect 3 0 16 0;
#X connect 4 0 3 1;
#X connect 5 0 3 1;
#X connect 6 0 3 0;
#X connect 7 0 8 0;
#X connect 7 0 20 0;
#X connect 8 0 7 1;
#X connect 9 0 7 1;
#X connect 10 0 11 0;
#X connect 11 0 1 0;
#X connect 12 0 10 0;
#X connect 13 0 19 0;
#X connect 14 0 13 0;
#X connect 14 1 19 1;
#X connect 14 2 15 0;
#X connect 15 0 19 2;
#X connect 16 0 14 0;
#X connect 16 1 7 0;
#X connect 17 0 6 0;
#X connect 17 1 5 0;
#X connect 17 1 9 0;
#X connect 18 0 12 0;
#X connect 19 0 18 0;
#X connect 20 0 12 1;
#X restore 84 217 pd param-stuff;
#X obj 150 78 t a b b b b b b b b b b;
#X connect 1 0 0 0;
#X connect 2 0 0 0;
#X connect 3 0 0 0;
#X connect 4 0 0 0;
#X connect 6 0 12 0;
#X connect 7 0 0 0;
#X connect 8 0 7 0;
#X connect 9 0 0 0;
#X connect 10 0 0 0;
#X connect 11 0 0 0;
#X connect 12 0 8 0;
#X connect 12 1 11 0;
#X connect 12 2 4 0;
#X connect 12 3 10 0;
#X connect 12 4 4 0;
#X connect 12 5 9 0;
#X connect 12 6 4 0;
#X connect 12 7 3 0;
#X connect 12 8 4 0;
#X connect 12 9 2 0;
#X connect 12 10 1 0;
#X restore 223 194 pd export-preset;
#X obj 257 31 cnv 15 250 50 empty empty empty 20 12 0 14 -233017 -66577
0;
#X text 269 37 DRFX - Dynamic Routing for FX;
#N canvas 742 203 391 225 text-defines 0;
#X obj 56 79 text define \$0-fx-list-text;
#X obj 56 59 text define \$0-source-list-text;
#X obj 56 99 text define \$0-fx-param-list-text;
#X restore 43 84 pd text-defines;
#N canvas 0 22 450 300 init 0;
#X obj 56 71 t b b b b;
#X obj 56 183 s \$0-drfx-lb4;
#X obj 76 163 s \$0-drfx-lb3;
#X obj 96 143 s \$0-drfx-lb2;
#X obj 116 123 s \$0-drfx-lb1;
#X obj 56 49 loadbang;
#X obj 277 71 r \$0-drfx-lb1;
#X obj 277 93 f \$0;
#X msg 277 115 \; \$1-matrix-spacing-x 35 \; \$1-matrix-spacing-y 25
\; \$1-matrix-margin-x 150 \; \$1-matrix-margin-y 25 \;;
#X connect 0 0 1 0;
#X connect 0 1 2 0;
#X connect 0 2 3 0;
#X connect 0 3 4 0;
#X connect 5 0 0 0;
#X connect 6 0 7 0;
#X connect 7 0 8 0;
#X restore 423 154 pd init;
#X obj 43 246 outlet;
#X obj 43 124 r \$0-create-matrix;
#X text 269 57 version 0.5.1 \, March 2018;
#X connect 0 0 1 0;
#X connect 1 0 6 0;
#X connect 3 0 4 0;
#X connect 6 0 12 0;
#X connect 13 0 0 0;
